<?xml version="1.0" standalone="no"?>
<!DOCTYPE svg PUBLIC "-//W3C//DTD SVG 20010904//EN"
 "http://www.w3.org/TR/2001/REC-SVG-20010904/DTD/svg10.dtd">
<svg version="1.0" xmlns="http://www.w3.org/2000/svg"
 width="260.000000pt" height="260.000000pt" viewBox="0 0 260.000000 260.000000"
 preserveAspectRatio="xMidYMid meet">
<metadata>
Created by potrace 1.14, written by Peter Selinger 2001-2017
</metadata>
<g transform="translate(0.000000,260.000000) scale(0.100000,-0.100000)"
fill="#000000" stroke="none">
<path d="M1208 2235 c-1 -1 -27 -5 -56 -9 -29 -3 -94 -20 -145 -36 -326 -105
-567 -384 -631 -729 -13 -72 -14 -266 -2 -321 3 -14 9 -40 12 -58 4 -18 19
-66 34 -107 102 -274 322 -483 599 -570 47 -14 103 -27 125 -28 l41 -2 0 108
c0 59 -2 112 -5 116 -3 5 -31 16 -64 25 -95 28 -167 64 -241 121 -71 55 -76
59 -131 130 -214 272 -187 676 61 920 231 227 574 270 850 107 154 -90 261
-226 315 -400 l27 -87 116 0 c133 -1 126 -8 102 95 -40 169 -114 307 -229 429
-184 193 -399 289 -663 296 -61 2 -113 2 -115 0z"/>
<path d="M2118 1294 c-2 -1 -21 -4 -43 -8 -281 -41 -556 -250 -684 -519 -54
-113 -91 -260 -91 -363 l0 -42 468 2 467 1 1 468 2 468 -59 -2 c-32 -1 -60 -3
-61 -5z m-117 -296 c0 -13 1 -107 2 -211 2 -181 1 -187 -18 -188 -22 -1 -322
0 -373 0 -30 1 -33 3 -27 24 26 87 190 287 270 329 153 80 145 78 146 46z"/>
</g>
</svg>
