<?xml version="1.0" encoding="utf-8"?>
<!-- Generator: Adobe Illustrator 22.1.0, SVG Export Plug-In . SVG Version: 6.00 Build 0)  -->
<svg version="1.1" id="logo" xmlns="http://www.w3.org/2000/svg" xmlns:xlink="http://www.w3.org/1999/xlink" x="0px" y="0px"
	 viewBox="0 0 744.6 222.7" style="enable-background:new 0 0 744.6 222.7;" xml:space="preserve">
<style type="text/css">
	.st0{fill:#53DD6C;}
	.st1{fill:#E3E3E3;}
</style>
<g>
	<path class="st0" d="M111.2,222.5h111.2V111.4C161,111.4,111.2,161.1,111.2,222.5 M194.6,194.8h-50.8c8.4-23.7,27.1-42.5,50.8-50.8
		V194.8z"/>
	<path class="st1" d="M97.3,221.7C42.5,214.8,0,168.1,0,111.4C0,49.9,49.8,0.2,111.2,0.2c56.7,0,103.5,42.5,110.3,97.3h-28.1
		C186.8,58,152.5,28,111.2,28c-46.1,0-83.4,37.3-83.4,83.4c0,41.3,30.1,75.6,69.5,82.2V221.7z"/>
	<path class="st1" d="M310,111.7v58h-16.9l-1.3-9.3c-2,3.7-4.9,6.7-8.6,8.8c-3.7,2.2-8,3.2-13,3.2c-5.3,0-9.7-1.6-13.3-4.9
		c-3.5-3.3-5.4-7.4-5.4-12.5v-43.4h18.6v36.5c0.3,5.7,2.9,8.5,7.8,8.5c4.1,0,7.3-2,9.8-6c2.4-4,3.6-9.1,3.6-15.4v-23.6H310z"/>
	<path class="st1" d="M391.6,111.7v58H373v-7.2c-5.6,5.8-12,8.8-19.4,8.8c-8.6,0-15.6-2.6-20.9-7.7c-5.4-5.1-8-12.7-8-22.8
		c0-6.4,1.3-12,3.9-16.8c2.6-4.8,6.1-8.6,10.4-11.2c4.3-2.7,9-4,13.9-4c5.1,0,9.2,0.8,12.2,2.3c3,1.6,5.7,3.7,8,6.6l1.2-6H391.6z
		 M373,147.4v-14.2c-1.1-2.8-2.9-5.1-5.5-6.8c-2.6-1.7-5.7-2.5-9.2-2.5c-4.1,0-7.6,1.5-10.4,4.5c-2.9,3-4.3,6.8-4.3,11.4
		c0,3,0.7,5.8,2.1,8.3c1.4,2.5,3.3,4.5,5.6,5.9c2.3,1.4,4.9,2.1,7.6,2.1C365.4,156.2,370.1,153.3,373,147.4"/>
	<path class="st1" d="M474.5,65v104.8h-18.6v-6.1c-6.7,5.1-13.9,7.7-21.5,7.7c-5.4,0-10.2-1.3-14.5-3.8c-4.2-2.6-7.6-6.2-10-11
		c-2.4-4.8-3.7-10.4-3.7-16.9c0-6.4,1.3-11.9,3.9-16.5c2.6-4.7,6.2-8.2,10.8-10.6c4.6-2.4,9.9-3.7,15.8-3.7c3.8,0,7.4,0.6,10.8,1.8
		c3.4,1.2,6.2,2.9,8.5,5.2V65H474.5z M449.8,153.5c2.5-1.5,4.5-3.7,6.1-6.6v-14.2c-1.1-2.8-3-5.1-5.7-6.8c-2.7-1.7-6-2.5-9.7-2.5
		c-4.2,0-7.8,1.5-10.8,4.5c-3.1,3-4.6,6.8-4.6,11.4c0,3,0.7,5.8,2.1,8.3c1.4,2.5,3.3,4.5,5.6,5.9c2.3,1.4,4.9,2.1,7.6,2.1
		C444.2,155.7,447.3,155,449.8,153.5"/>
	<path class="st1" d="M518.4,116.6c2.8-2.5,5.6-4.4,8.6-5.8c2.9-1.4,5.2-2.1,6.9-2.1l-0.9,18.6c-0.5-0.1-1.3-0.1-2.3-0.1
		c-3.7,0-7,1-9.8,2.9c-2.8,1.9-5,4.4-6.5,7.5c-1.5,3.1-2.3,6.2-2.3,9.4v22.7h-18.5v-58h16.7l1.5,13.3
		C513.4,121.9,515.6,119.1,518.4,116.6"/>
	<path class="st1" d="M608.5,111.7v58h-18.6v-7.2c-5.6,5.8-12,8.8-19.4,8.8c-8.6,0-15.6-2.6-20.9-7.7c-5.4-5.1-8-12.7-8-22.8
		c0-6.4,1.3-12,3.9-16.8c2.6-4.8,6.1-8.6,10.4-11.2c4.3-2.7,9-4,13.9-4c5.1,0,9.2,0.8,12.2,2.3c3,1.6,5.7,3.7,8,6.6l1.2-6H608.5z
		 M589.9,147.4v-14.2c-1.1-2.8-2.9-5.1-5.5-6.8c-2.6-1.7-5.7-2.5-9.2-2.5c-4.1,0-7.6,1.5-10.4,4.5c-2.9,3-4.3,6.8-4.3,11.4
		c0,3,0.7,5.8,2.1,8.3c1.4,2.5,3.3,4.5,5.6,5.9c2.3,1.4,4.9,2.1,7.6,2.1C582.3,156.2,587,153.3,589.9,147.4"/>
	<path class="st1" d="M681.7,113.8c3.7,3.3,5.6,7.4,5.6,12.5v43.4h-18.6v-36.5c-0.3-5.7-3.1-8.5-8.5-8.5c-4.3,0-7.7,2-10.2,6
		c-2.6,4-3.8,9.1-3.8,15.4v23.6h-18.6v-58h16.9l1.3,9.3c2.1-3.8,5.1-6.8,8.8-8.9c3.8-2.1,8.2-3.2,13.3-3.2
		C673.5,108.9,678,110.6,681.7,113.8"/>
	<polygon class="st1" points="730.5,86.2 730.5,111.5 744.6,111.5 744.6,125.9 730.5,125.9 730.5,169.8 711.9,169.8 711.9,125.9 
		702.9,125.9 702.9,111.5 711.9,111.5 711.9,86.2 	"/>
</g>
</svg>
