<?xml version="1.0" encoding="utf-8"?>
<!-- Generator: Adobe Illustrator 22.1.0, SVG Export Plug-In . SVG Version: 6.00 Build 0)  -->
<svg version="1.1" id="Layer_1" xmlns="http://www.w3.org/2000/svg" xmlns:xlink="http://www.w3.org/1999/xlink" x="0px" y="0px"
	 viewBox="0 0 556 556" style="enable-background:new 0 0 556 556;" xml:space="preserve">
<style type="text/css">
	.st0{fill:#53DD6C;}
	.st1{fill:#E3E3E3;}
</style>
<g>
	<path class="st0" d="M278,556h278V278C402.5,278,278,402.4,278,556 M486.5,486.5H359.4c20.9-59.2,67.9-106.1,127.1-127.1V486.5z"/>
	<path class="st1" d="M243.2,553.7C106.1,536.6,0,419.7,0,278C0,124.4,124.5,0,278,0c141.8,0,258.6,106.1,275.8,243.2h-70.2
		C467,144.6,381.3,69.5,278,69.5C162.8,69.5,69.5,162.8,69.5,278c0,103.3,75.1,189,173.7,205.5V553.7z"/>
</g>
</svg>
