<?xml version="1.0" encoding="utf-8"?>
<!-- Generator: Adobe Illustrator 22.1.0, SVG Export Plug-In . SVG Version: 6.00 Build 0)  -->
<svg version="1.1" id="Layer_1" xmlns="http://www.w3.org/2000/svg" xmlns:xlink="http://www.w3.org/1999/xlink" x="0px" y="0px"
	 viewBox="0 0 744.6 222.7" style="enable-background:new 0 0 744.6 222.7;" xml:space="preserve">
<style type="text/css">
	.st0{fill:#6F6BA3;}
	.st1{fill:#53DD6C;}
	.st2{fill:#2D2D2D;}
</style>
<path class="st0" d="M111.2,222.4h111.2V111.2C161,111.2,111.2,161,111.2,222.4 M194.6,194.6h-50.8c8.4-23.7,27.1-42.5,50.8-50.8
	V194.6z"/>
<path class="st1" d="M97.3,221.5C42.4,214.7,0,167.9,0,111.2C0,49.8,49.8,0,111.2,0c56.7,0,103.5,42.4,110.3,97.3h-28.1
	c-6.6-39.4-40.9-69.5-82.2-69.5c-46.1,0-83.4,37.3-83.4,83.4c0,41.3,30.1,75.6,69.5,82.2V221.5z"/>
<path class="st1" d="M310,111.6v58h-16.9l-1.3-9.3c-2,3.7-4.9,6.7-8.6,8.8c-3.7,2.2-8,3.3-12.9,3.3c-5.3,0-9.7-1.6-13.3-4.9
	c-3.5-3.3-5.4-7.4-5.4-12.5v-43.4h18.6v36.5c0.3,5.7,2.9,8.5,7.8,8.5c4.1,0,7.3-2,9.8-6c2.4-4,3.6-9.1,3.6-15.4v-23.6H310z"/>
<path class="st1" d="M391.6,111.6v58H373v-7.2c-5.6,5.8-12,8.8-19.4,8.8c-8.6,0-15.6-2.6-20.9-7.7c-5.4-5.1-8-12.8-8-22.8
	c0-6.4,1.3-12,3.9-16.8c2.6-4.8,6.1-8.6,10.4-11.2c4.3-2.7,9-4,13.9-4c5.1,0,9.2,0.8,12.2,2.3c3,1.6,5.7,3.7,8,6.6l1.2-6H391.6z
	 M373,147.3v-14.2c-1.1-2.8-2.9-5.1-5.5-6.8c-2.6-1.7-5.7-2.5-9.2-2.5c-4.1,0-7.6,1.5-10.4,4.5c-2.9,3-4.3,6.8-4.3,11.4
	c0,3,0.7,5.8,2.1,8.3c1.4,2.5,3.3,4.5,5.6,5.9c2.3,1.4,4.9,2.1,7.6,2.1C365.4,156.1,370.1,153.1,373,147.3"/>
<path class="st1" d="M474.4,64.8v104.8h-18.6v-6.1c-6.7,5.1-13.9,7.7-21.5,7.7c-5.4,0-10.2-1.3-14.5-3.8c-4.3-2.6-7.6-6.2-10-11
	c-2.4-4.8-3.7-10.4-3.7-16.9c0-6.4,1.3-11.9,3.9-16.5c2.6-4.6,6.2-8.2,10.8-10.6c4.6-2.4,9.9-3.7,15.8-3.7c3.8,0,7.4,0.6,10.8,1.8
	c3.4,1.2,6.2,2.9,8.5,5.2V64.8H474.4z M449.7,153.3c2.5-1.5,4.5-3.7,6.1-6.6v-14.2c-1.1-2.8-3-5.1-5.7-6.8c-2.7-1.7-6-2.5-9.7-2.5
	c-4.2,0-7.8,1.5-10.8,4.5c-3.1,3-4.6,6.8-4.6,11.4c0,3,0.7,5.8,2.1,8.3c1.4,2.5,3.3,4.5,5.6,5.9c2.3,1.4,4.9,2.1,7.6,2.1
	C444.2,155.5,447.3,154.8,449.7,153.3"/>
<path class="st1" d="M518.3,116.5c2.8-2.5,5.6-4.4,8.6-5.8c2.9-1.4,5.2-2.1,6.9-2.1l-0.9,18.6c-0.5-0.1-1.3-0.1-2.3-0.1
	c-3.7,0-7,1-9.8,2.9c-2.8,1.9-5,4.4-6.5,7.5c-1.5,3.1-2.3,6.2-2.3,9.4v22.7h-18.5v-58h16.7l1.5,13.3
	C513.3,121.7,515.5,119,518.3,116.5"/>
<path class="st1" d="M608.4,111.6v58h-18.6v-7.2c-5.6,5.8-12,8.8-19.4,8.8c-8.6,0-15.6-2.6-20.9-7.7c-5.4-5.1-8-12.8-8-22.8
	c0-6.4,1.3-12,3.9-16.8c2.6-4.8,6.1-8.6,10.4-11.2c4.3-2.7,9-4,13.9-4c5.1,0,9.2,0.8,12.2,2.3c3,1.6,5.7,3.7,8,6.6l1.2-6H608.4z
	 M589.8,147.3v-14.2c-1.1-2.8-2.9-5.1-5.5-6.8c-2.6-1.7-5.7-2.5-9.2-2.5c-4.1,0-7.6,1.5-10.4,4.5c-2.9,3-4.3,6.8-4.3,11.4
	c0,3,0.7,5.8,2.1,8.3c1.4,2.5,3.3,4.5,5.6,5.9c2.3,1.4,4.9,2.1,7.6,2.1C582.2,156.1,586.9,153.1,589.8,147.3"/>
<path class="st1" d="M681.7,113.7c3.7,3.3,5.6,7.4,5.6,12.5v43.4h-18.6v-36.5c-0.3-5.7-3.1-8.5-8.5-8.5c-4.3,0-7.7,2-10.2,6
	c-2.6,4-3.9,9.1-3.9,15.4v23.6h-18.6v-58h16.9l1.3,9.3c2.1-3.8,5.1-6.8,8.8-8.9c3.8-2.1,8.2-3.2,13.3-3.2
	C673.4,108.8,678,110.4,681.7,113.7"/>
<polygon class="st1" points="730.5,86.1 730.5,111.3 744.6,111.3 744.6,125.8 730.5,125.8 730.5,169.6 711.9,169.6 711.9,125.8 
	702.9,125.8 702.9,111.3 711.9,111.3 711.9,86.1 "/>
<path class="st2" d="M255.2,221.9c-1.1-0.6-2-1.4-2.7-2.4c-0.6-1-0.9-2.2-0.9-3.5v-12.4c0-0.2,0.1-0.4,0.2-0.5
	c0.1-0.1,0.3-0.2,0.5-0.2c0.2,0,0.4,0.1,0.5,0.2c0.1,0.1,0.2,0.3,0.2,0.5V216c0,1,0.3,1.9,0.8,2.7c0.5,0.8,1.2,1.4,2.1,1.9
	c0.9,0.5,1.9,0.7,3.1,0.7s2.2-0.2,3.1-0.7c0.9-0.5,1.6-1.1,2.1-1.9c0.5-0.8,0.8-1.7,0.8-2.7v-12.4c0-0.2,0.1-0.4,0.2-0.5
	c0.1-0.1,0.3-0.2,0.5-0.2c0.2,0,0.4,0.1,0.5,0.2c0.1,0.1,0.2,0.3,0.2,0.5V216c0,1.3-0.3,2.5-1,3.5c-0.6,1-1.5,1.8-2.7,2.4
	c-1.1,0.6-2.4,0.9-3.9,0.9C257.6,222.7,256.3,222.5,255.2,221.9"/>
<path class="st2" d="M276.4,221.6c-1.2-0.6-2-1.5-2.6-2.6c0-0.1-0.1-0.2-0.1-0.3c0-0.2,0.1-0.4,0.2-0.5c0.1-0.1,0.3-0.2,0.6-0.2
	c0.3,0,0.6,0.2,0.7,0.5c0.5,0.8,1.1,1.5,2,1.9c0.9,0.5,2,0.7,3.2,0.7c1.4,0,2.6-0.4,3.4-1.1c0.8-0.7,1.2-1.7,1.2-3
	c0-1.1-0.4-2.1-1.2-2.8c-0.8-0.7-2-1.2-3.6-1.4c-1.8-0.3-3.3-0.9-4.4-1.8c-1.1-0.9-1.6-2.1-1.6-3.4c0-1,0.2-1.8,0.7-2.6
	c0.5-0.7,1.2-1.3,2.1-1.7c0.9-0.4,1.9-0.6,3.1-0.6c1.2,0,2.3,0.3,3.3,0.9c1,0.6,1.8,1.3,2.2,2.1c0.1,0.1,0.1,0.3,0.1,0.4
	c0,0.1,0,0.3-0.1,0.4c-0.1,0.1-0.2,0.2-0.3,0.3c-0.1,0-0.2,0-0.3,0c-0.3,0-0.5-0.1-0.7-0.4c-1-1.4-2.4-2.2-4.3-2.2
	c-1.4,0-2.5,0.3-3.2,0.9c-0.8,0.6-1.2,1.5-1.2,2.6c0,0.9,0.4,1.7,1.1,2.4c0.8,0.6,2,1.1,3.6,1.3c2.1,0.3,3.6,1,4.6,1.9
	c1,0.9,1.4,2.2,1.4,3.7c0,1.1-0.3,2.1-0.8,3c-0.5,0.8-1.2,1.5-2.1,1.9c-0.9,0.5-2,0.7-3.2,0.7C278.9,222.6,277.5,222.3,276.4,221.6"
	/>
<path class="st2" d="M293.9,222.1c-0.1-0.1-0.2-0.3-0.2-0.5v-18c0-0.2,0.1-0.4,0.2-0.5c0.1-0.1,0.3-0.2,0.5-0.2h12
	c0.2,0,0.4,0.1,0.5,0.2c0.1,0.1,0.2,0.3,0.2,0.5c0,0.2-0.1,0.4-0.2,0.5c-0.2,0.1-0.3,0.2-0.5,0.2h-11.3v7.5h8.3
	c0.2,0,0.4,0.1,0.5,0.2c0.1,0.1,0.2,0.3,0.2,0.5c0,0.2-0.1,0.4-0.2,0.6c-0.1,0.1-0.3,0.2-0.5,0.2h-8.3v7.5h11.3
	c0.2,0,0.4,0.1,0.5,0.2c0.1,0.2,0.2,0.3,0.2,0.5c0,0.2-0.1,0.4-0.2,0.5c-0.2,0.1-0.3,0.2-0.5,0.2h-12
	C294.2,222.3,294.1,222.3,293.9,222.1"/>
<path class="st2" d="M325.9,221.8c0,0.2-0.1,0.3-0.2,0.4c-0.1,0.1-0.3,0.1-0.6,0.1c-0.2,0-0.3,0-0.4-0.1c-0.1-0.1-0.2-0.2-0.3-0.3
	l-4.6-7.3h-0.5h-4v7c0,0.2-0.1,0.4-0.2,0.5c-0.1,0.1-0.3,0.2-0.5,0.2c-0.2,0-0.4-0.1-0.5-0.2c-0.1-0.1-0.2-0.3-0.2-0.5v-18
	c0-0.2,0.1-0.4,0.2-0.5c0.1-0.1,0.3-0.2,0.5-0.2h4.8c1.2,0,2.3,0.3,3.2,0.8c1,0.5,1.7,1.2,2.2,2.1c0.5,0.9,0.8,1.9,0.8,3.1
	c0,1.4-0.4,2.5-1.1,3.5c-0.8,1-1.8,1.7-3.1,2l4.3,6.9C325.9,221.4,325.9,221.6,325.9,221.8 M319.4,213.1c0.9,0,1.7-0.2,2.4-0.5
	c0.7-0.4,1.3-0.9,1.7-1.6c0.4-0.7,0.6-1.4,0.6-2.2c0-0.8-0.2-1.6-0.6-2.3c-0.4-0.7-1-1.2-1.7-1.6c-0.7-0.4-1.5-0.6-2.4-0.6h-4v8.8
	H319.4z"/>
<path class="st2" d="M342.6,222.1c-0.1-0.1-0.2-0.3-0.2-0.5v-18c0-0.2,0.1-0.4,0.2-0.5c0.1-0.1,0.3-0.2,0.5-0.2h12
	c0.2,0,0.4,0.1,0.5,0.2c0.1,0.1,0.2,0.3,0.2,0.5c0,0.2-0.1,0.4-0.2,0.5c-0.2,0.1-0.3,0.2-0.5,0.2h-11.3v7.5h8.3
	c0.2,0,0.4,0.1,0.5,0.2c0.1,0.1,0.2,0.3,0.2,0.5c0,0.2-0.1,0.4-0.2,0.6c-0.1,0.1-0.3,0.2-0.5,0.2h-8.3v7.5h11.3
	c0.2,0,0.4,0.1,0.5,0.2c0.1,0.2,0.2,0.3,0.2,0.5c0,0.2-0.1,0.4-0.2,0.5c-0.2,0.1-0.3,0.2-0.5,0.2h-12
	C342.9,222.3,342.7,222.3,342.6,222.1"/>
<path class="st2" d="M376.4,221.6c0,0.2-0.1,0.4-0.2,0.5c-0.1,0.1-0.3,0.2-0.5,0.2c-0.1,0-0.2,0-0.3-0.1c-0.1,0-0.2-0.1-0.3-0.2
	l-6.3-8.8l-6.3,8.8c-0.2,0.2-0.3,0.3-0.6,0.3c-0.2,0-0.4-0.1-0.5-0.2c-0.1-0.1-0.2-0.3-0.2-0.5c0-0.2,0.1-0.4,0.2-0.5l6.4-8.9
	l-6-8.3c-0.1-0.1-0.2-0.3-0.2-0.5c0-0.2,0.1-0.3,0.2-0.5c0.1-0.1,0.3-0.2,0.5-0.2c0.3,0,0.5,0.1,0.6,0.3l5.9,8.1l5.9-8.1
	c0.2-0.2,0.4-0.3,0.6-0.3c0.2,0,0.4,0.1,0.5,0.2c0.1,0.2,0.2,0.3,0.2,0.5c0,0.1,0,0.3-0.1,0.4l-6,8.3l6.4,8.8
	C376.4,221.2,376.4,221.4,376.4,221.6"/>
<path class="st2" d="M383.3,222.1c-0.1-0.1-0.2-0.3-0.2-0.5v-18c0-0.2,0.1-0.4,0.2-0.5c0.1-0.1,0.3-0.2,0.5-0.2h5
	c1.2,0,2.3,0.3,3.2,0.8c0.9,0.5,1.7,1.3,2.2,2.2c0.5,0.9,0.8,2,0.8,3.2c0,1.2-0.3,2.3-0.8,3.2c-0.5,1-1.3,1.7-2.2,2.2
	c-0.9,0.5-2,0.8-3.2,0.8h-4.2v6.3c0,0.2-0.1,0.4-0.2,0.5c-0.1,0.1-0.3,0.2-0.5,0.2C383.6,222.3,383.4,222.3,383.3,222.1
	 M388.8,213.8c0.9,0,1.7-0.2,2.4-0.6c0.7-0.4,1.3-1,1.7-1.7c0.4-0.7,0.6-1.5,0.6-2.5c0-0.9-0.2-1.7-0.6-2.5c-0.4-0.7-1-1.3-1.7-1.7
	c-0.7-0.4-1.5-0.6-2.4-0.6h-4.2v9.5H388.8z"/>
<path class="st2" d="M401.4,222.1c-0.1-0.1-0.2-0.3-0.2-0.5v-18c0-0.2,0.1-0.4,0.2-0.5c0.1-0.1,0.3-0.2,0.5-0.2h12
	c0.2,0,0.4,0.1,0.5,0.2c0.1,0.1,0.2,0.3,0.2,0.5c0,0.2-0.1,0.4-0.2,0.5c-0.2,0.1-0.3,0.2-0.5,0.2h-11.3v7.5h8.3
	c0.2,0,0.4,0.1,0.5,0.2c0.1,0.1,0.2,0.3,0.2,0.5c0,0.2-0.1,0.4-0.2,0.6c-0.1,0.1-0.3,0.2-0.5,0.2h-8.3v7.5h11.3
	c0.2,0,0.4,0.1,0.5,0.2c0.1,0.2,0.2,0.3,0.2,0.5c0,0.2-0.1,0.4-0.2,0.5c-0.2,0.1-0.3,0.2-0.5,0.2h-12
	C401.7,222.3,401.5,222.3,401.4,222.1"/>
<path class="st2" d="M433.4,221.8c0,0.2-0.1,0.3-0.2,0.4c-0.1,0.1-0.3,0.1-0.6,0.1c-0.2,0-0.3,0-0.4-0.1c-0.1-0.1-0.2-0.2-0.3-0.3
	l-4.6-7.3h-0.4h-4v7c0,0.2-0.1,0.4-0.2,0.5c-0.1,0.1-0.3,0.2-0.5,0.2c-0.2,0-0.4-0.1-0.5-0.2c-0.1-0.1-0.2-0.3-0.2-0.5v-18
	c0-0.2,0.1-0.4,0.2-0.5c0.1-0.1,0.3-0.2,0.5-0.2h4.8c1.2,0,2.3,0.3,3.2,0.8c1,0.5,1.7,1.2,2.2,2.1c0.5,0.9,0.8,1.9,0.8,3.1
	c0,1.4-0.4,2.5-1.1,3.5c-0.8,1-1.8,1.7-3.1,2l4.3,6.9C433.3,221.4,433.4,221.6,433.4,221.8 M426.8,213.1c0.9,0,1.7-0.2,2.4-0.5
	c0.7-0.4,1.3-0.9,1.7-1.6c0.4-0.7,0.6-1.4,0.6-2.2c0-0.8-0.2-1.6-0.6-2.3c-0.4-0.7-1-1.2-1.7-1.6c-0.7-0.4-1.5-0.6-2.4-0.6h-4v8.8
	H426.8z"/>
<path class="st2" d="M439.7,222.1c-0.1-0.1-0.2-0.3-0.2-0.5v-18c0-0.2,0.1-0.4,0.2-0.5c0.1-0.1,0.3-0.2,0.5-0.2
	c0.2,0,0.4,0.1,0.5,0.2c0.1,0.1,0.2,0.3,0.2,0.5v18c0,0.2-0.1,0.4-0.2,0.5c-0.1,0.1-0.3,0.2-0.5,0.2
	C440,222.3,439.9,222.3,439.7,222.1"/>
<path class="st2" d="M449.2,222.1c-0.1-0.1-0.2-0.3-0.2-0.5v-18c0-0.2,0.1-0.4,0.2-0.5c0.1-0.1,0.3-0.2,0.5-0.2h12
	c0.2,0,0.4,0.1,0.5,0.2c0.1,0.1,0.2,0.3,0.2,0.5c0,0.2-0.1,0.4-0.2,0.5c-0.2,0.1-0.3,0.2-0.5,0.2h-11.3v7.5h8.3
	c0.2,0,0.4,0.1,0.5,0.2c0.1,0.1,0.2,0.3,0.2,0.5c0,0.2-0.1,0.4-0.2,0.6c-0.1,0.1-0.3,0.2-0.5,0.2h-8.3v7.5h11.3
	c0.2,0,0.4,0.1,0.5,0.2c0.1,0.2,0.2,0.3,0.2,0.5c0,0.2-0.1,0.4-0.2,0.5c-0.2,0.1-0.3,0.2-0.5,0.2h-12
	C449.5,222.3,449.4,222.3,449.2,222.1"/>
<path class="st2" d="M469.4,222.1c-0.1-0.1-0.2-0.3-0.2-0.5v-18c0-0.2,0.1-0.4,0.2-0.5c0.1-0.1,0.3-0.2,0.5-0.2
	c0.2,0,0.4,0.1,0.6,0.2l12.7,16.5v-16c0-0.2,0.1-0.4,0.2-0.5c0.1-0.1,0.3-0.2,0.5-0.2c0.2,0,0.4,0.1,0.5,0.2
	c0.2,0.1,0.2,0.3,0.2,0.5v18c0,0.2-0.1,0.4-0.2,0.5c-0.2,0.1-0.3,0.2-0.5,0.2c-0.2,0-0.4-0.1-0.6-0.2l-12.7-16.5v16
	c0,0.2-0.1,0.4-0.2,0.5c-0.1,0.1-0.3,0.2-0.5,0.2C469.7,222.3,469.5,222.3,469.4,222.1"/>
<path class="st2" d="M496.6,221.2c-1.5-0.9-2.7-2.1-3.6-3.7c-0.9-1.5-1.3-3.2-1.3-5c0-1.8,0.4-3.4,1.3-5c0.9-1.5,2.1-2.8,3.5-3.7
	s3.1-1.4,4.9-1.4c2.3,0,4.4,0.7,6.2,2.2c0.1,0.1,0.2,0.3,0.2,0.5c0,0.2-0.1,0.4-0.2,0.5c-0.1,0.2-0.3,0.2-0.5,0.2
	c-0.2,0-0.4-0.1-0.6-0.3c-1.3-1.1-2.9-1.7-5-1.7c-1.5,0-2.8,0.4-4.1,1.2c-1.3,0.8-2.3,1.8-3,3.1c-0.8,1.3-1.1,2.7-1.1,4.2
	c0,1.5,0.4,3,1.1,4.3c0.7,1.3,1.7,2.3,3,3.1c1.3,0.8,2.7,1.2,4.1,1.2c2,0,3.7-0.6,5.2-1.8c0.1-0.1,0.2-0.1,0.4-0.1
	c0.2,0,0.4,0.1,0.5,0.2c0.2,0.2,0.2,0.3,0.2,0.5c0,0.2-0.1,0.4-0.2,0.5c-1.4,1.4-3.5,2.1-6.1,2.1
	C499.7,222.6,498.1,222.1,496.6,221.2"/>
<path class="st2" d="M515.1,222.1c-0.1-0.1-0.2-0.3-0.2-0.5v-18c0-0.2,0.1-0.4,0.2-0.5c0.1-0.1,0.3-0.2,0.5-0.2h12
	c0.2,0,0.4,0.1,0.5,0.2c0.1,0.1,0.2,0.3,0.2,0.5c0,0.2-0.1,0.4-0.2,0.5c-0.2,0.1-0.3,0.2-0.5,0.2h-11.3v7.5h8.3
	c0.2,0,0.4,0.1,0.5,0.2c0.1,0.1,0.2,0.3,0.2,0.5c0,0.2-0.1,0.4-0.2,0.6c-0.1,0.1-0.3,0.2-0.5,0.2h-8.3v7.5h11.3
	c0.2,0,0.4,0.1,0.5,0.2c0.1,0.2,0.2,0.3,0.2,0.5c0,0.2-0.1,0.4-0.2,0.5c-0.2,0.1-0.3,0.2-0.5,0.2h-12
	C515.4,222.3,515.2,222.3,515.1,222.1"/>
<path class="st2" d="M545.5,222.1c-0.1-0.1-0.2-0.3-0.2-0.5v-18c0-0.2,0.1-0.4,0.2-0.5c0.1-0.1,0.3-0.2,0.5-0.2
	c0.2,0,0.4,0.1,0.6,0.2l12.7,16.5v-16c0-0.2,0.1-0.4,0.2-0.5c0.1-0.1,0.3-0.2,0.5-0.2c0.2,0,0.4,0.1,0.5,0.2
	c0.1,0.1,0.2,0.3,0.2,0.5v18c0,0.2-0.1,0.4-0.2,0.5c-0.2,0.1-0.3,0.2-0.5,0.2c-0.2,0-0.4-0.1-0.6-0.2l-12.7-16.5v16
	c0,0.2-0.1,0.4-0.2,0.5c-0.1,0.1-0.3,0.2-0.5,0.2C545.9,222.3,545.7,222.3,545.5,222.1"/>
<path class="st2" d="M583.6,221.6c0,0.2-0.1,0.4-0.2,0.5c-0.2,0.1-0.3,0.2-0.5,0.2c-0.3,0-0.6-0.2-0.7-0.5l-1.9-4.4h-10.2l-1.8,4.4
	c-0.1,0.3-0.4,0.5-0.7,0.5c-0.2,0-0.4-0.1-0.5-0.2c-0.1-0.2-0.2-0.3-0.2-0.5c0-0.1,0-0.2,0.1-0.3l7.6-17.9c0.1-0.3,0.4-0.5,0.7-0.5
	c0.3,0,0.6,0.2,0.7,0.5l7.6,17.9C583.6,221.4,583.6,221.5,583.6,221.6 M570.7,216.1h9l-4.5-10.8L570.7,216.1z"/>
<path class="st2" d="M602.8,203c0.1,0.1,0.2,0.3,0.2,0.5c0,0.2,0,0.4-0.1,0.5l-7.5,17.8c-0.1,0.3-0.4,0.5-0.7,0.5
	c-0.2,0-0.3,0-0.4-0.1c-0.1-0.1-0.2-0.2-0.3-0.4l-7.5-17.8c-0.1-0.2-0.1-0.4-0.1-0.5c0-0.2,0.1-0.4,0.2-0.5c0.2-0.1,0.3-0.2,0.5-0.2
	c0.2,0,0.3,0,0.4,0.1c0.1,0.1,0.2,0.2,0.3,0.4l6.8,16.3l6.7-16.2c0.1-0.2,0.2-0.4,0.3-0.5c0.1-0.1,0.3-0.1,0.5-0.1
	C602.5,202.8,602.7,202.9,602.8,203"/>
<path class="st2" d="M609.2,222.1c-0.1-0.1-0.2-0.3-0.2-0.5v-18c0-0.2,0.1-0.4,0.2-0.5c0.1-0.1,0.3-0.2,0.5-0.2
	c0.2,0,0.4,0.1,0.5,0.2c0.1,0.1,0.2,0.3,0.2,0.5v18c0,0.2-0.1,0.4-0.2,0.5c-0.1,0.1-0.3,0.2-0.5,0.2
	C609.5,222.3,609.3,222.3,609.2,222.1"/>
<path class="st2" d="M633.3,213c0.1,0.1,0.2,0.3,0.2,0.5v6.4c0,0.1,0,0.2,0,0.3c0,0.1-0.1,0.2-0.2,0.2c-1.4,1.4-3.5,2.1-6.1,2.1
	c-1.7,0-3.4-0.5-4.9-1.4c-1.5-0.9-2.7-2.1-3.6-3.7c-0.9-1.5-1.3-3.2-1.3-5c0-1.8,0.4-3.4,1.3-5c0.9-1.5,2.1-2.8,3.5-3.7
	c1.5-0.9,3.1-1.4,4.9-1.4c2.3,0,4.4,0.7,6.2,2.2c0.1,0.1,0.2,0.3,0.2,0.5c0,0.2-0.1,0.4-0.2,0.5c-0.1,0.2-0.3,0.2-0.5,0.2
	c-0.2,0-0.4-0.1-0.6-0.3c-1.3-1.1-2.9-1.7-5-1.7c-1.5,0-2.8,0.4-4.1,1.2c-1.3,0.8-2.3,1.8-3,3.1c-0.8,1.3-1.1,2.7-1.1,4.2
	c0,1.5,0.4,3,1.1,4.3c0.7,1.3,1.7,2.3,3,3.1c1.3,0.8,2.7,1.2,4.1,1.2c1.8,0,3.4-0.5,4.8-1.6v-5.3h-4.2c-0.2,0-0.4-0.1-0.5-0.2
	c-0.1-0.1-0.2-0.3-0.2-0.5c0-0.2,0.1-0.3,0.2-0.5c0.1-0.1,0.3-0.2,0.5-0.2h4.9C633,212.8,633.2,212.9,633.3,213"/>
<path class="st2" d="M655.4,221.6c0,0.2-0.1,0.4-0.2,0.5c-0.2,0.1-0.3,0.2-0.5,0.2c-0.3,0-0.6-0.2-0.7-0.5l-1.9-4.4h-10.2l-1.9,4.4
	c-0.1,0.3-0.3,0.5-0.7,0.5c-0.2,0-0.4-0.1-0.5-0.2c-0.1-0.2-0.2-0.3-0.2-0.5c0-0.1,0-0.2,0.1-0.3l7.6-17.9c0.1-0.3,0.4-0.5,0.7-0.5
	c0.3,0,0.6,0.2,0.7,0.5l7.6,17.9C655.3,221.4,655.4,221.5,655.4,221.6 M642.5,216.1h9l-4.5-10.8L642.5,216.1z"/>
<path class="st2" d="M673.4,203c0.1,0.1,0.2,0.3,0.2,0.5s-0.1,0.4-0.2,0.5c-0.1,0.1-0.3,0.2-0.5,0.2h-6.3v17.4
	c0,0.2-0.1,0.4-0.2,0.5c-0.1,0.1-0.3,0.2-0.5,0.2c-0.2,0-0.4-0.1-0.5-0.2c-0.1-0.1-0.2-0.3-0.2-0.5v-17.4h-6.3
	c-0.2,0-0.4-0.1-0.5-0.2c-0.1-0.1-0.2-0.3-0.2-0.5s0.1-0.4,0.2-0.5c0.1-0.1,0.3-0.2,0.5-0.2h14.1C673.1,202.8,673.3,202.9,673.4,203
	"/>
<path class="st2" d="M679.7,222.1c-0.1-0.1-0.2-0.3-0.2-0.5v-18c0-0.2,0.1-0.4,0.2-0.5c0.1-0.1,0.3-0.2,0.5-0.2
	c0.2,0,0.4,0.1,0.5,0.2c0.1,0.1,0.2,0.3,0.2,0.5v18c0,0.2-0.1,0.4-0.2,0.5c-0.1,0.1-0.3,0.2-0.5,0.2
	C680,222.3,679.8,222.3,679.7,222.1"/>
<path class="st2" d="M692.9,221.3c-1.5-0.9-2.7-2.1-3.6-3.6c-0.9-1.5-1.3-3.2-1.3-5.1c0-1.9,0.4-3.6,1.3-5.1
	c0.9-1.5,2.1-2.7,3.6-3.6c1.5-0.9,3.2-1.3,5.1-1.3c1.9,0,3.6,0.4,5.1,1.3c1.5,0.9,2.7,2.1,3.6,3.6c0.9,1.5,1.3,3.2,1.3,5.1
	c0,1.9-0.4,3.6-1.3,5.1c-0.9,1.5-2.1,2.7-3.6,3.6c-1.5,0.9-3.2,1.3-5.1,1.3C696.1,222.6,694.4,222.2,692.9,221.3 M702.3,220
	c1.3-0.7,2.3-1.8,3.1-3.1c0.7-1.3,1.1-2.8,1.1-4.3c0-1.6-0.4-3-1.1-4.3c-0.7-1.3-1.8-2.3-3.1-3.1c-1.3-0.7-2.7-1.1-4.3-1.1
	c-1.6,0-3.1,0.4-4.4,1.1c-1.3,0.7-2.3,1.8-3.1,3.1c-0.7,1.3-1.1,2.7-1.1,4.3c0,1.6,0.4,3,1.1,4.3s1.8,2.3,3.1,3.1
	c1.3,0.7,2.7,1.1,4.4,1.1C699.5,221.1,701,220.7,702.3,220"/>
<path class="st2" d="M715.2,222.1c-0.1-0.1-0.2-0.3-0.2-0.5v-18c0-0.2,0.1-0.4,0.2-0.5c0.1-0.1,0.3-0.2,0.5-0.2
	c0.2,0,0.4,0.1,0.6,0.2l12.7,16.5v-16c0-0.2,0.1-0.4,0.2-0.5c0.1-0.1,0.3-0.2,0.5-0.2c0.2,0,0.4,0.1,0.5,0.2
	c0.1,0.1,0.2,0.3,0.2,0.5v18c0,0.2-0.1,0.4-0.2,0.5c-0.2,0.1-0.3,0.2-0.5,0.2c-0.2,0-0.4-0.1-0.6-0.2l-12.7-16.5v16
	c0,0.2-0.1,0.4-0.2,0.5c-0.1,0.1-0.3,0.2-0.5,0.2C715.5,222.3,715.3,222.3,715.2,222.1"/>
</svg>
