<?xml version="1.0" encoding="utf-8"?>
<!-- Generator: Adobe Illustrator 23.0.3, SVG Export Plug-In . SVG Version: 6.00 Build 0)  -->
<svg version="1.1" id="Logo_footer" xmlns="http://www.w3.org/2000/svg" xmlns:xlink="http://www.w3.org/1999/xlink" x="0px"
	 y="0px" viewBox="0 0 1428.3 426.6" style="enable-background:new 0 0 1428.3 426.6;" xml:space="preserve">
<style type="text/css">
	.quadrant-gris{fill:#777777;}
</style>
<g>
	<g>
		<path class="quadrant-gris" d="M213.3,426.6h213.3V213.3C308.8,213.3,213.3,308.8,213.3,426.6z M373.3,373.3h-97.5
			c16.1-45.4,52.1-81.4,97.5-97.5V373.3z"/>
		<path class="quadrant-gris" d="M186.6,424.9C81.4,411.8,0,322.1,0,213.3C0,95.5,95.5,0,213.3,0c108.8,0,198.5,81.4,211.6,186.6H371
			C358.3,111,292.6,53.3,213.3,53.3c-88.4,0-160,71.6-160,160c0,79.3,57.7,145,133.3,157.7V424.9z"/>
	</g>
	<g>
		<path class="quadrant-gris" d="M594.7,214v111.3h-32.4l-2.6-17.8c-3.9,7.1-9.4,12.8-16.4,16.9c-7.1,4.2-15.3,6.2-24.8,6.2
			c-10.2,0-18.7-3.1-25.5-9.4c-6.8-6.3-10.3-14.3-10.4-23.9V214h35.7v70.1c0.5,10.9,5.5,16.3,15,16.3c7.8,0,14-3.8,18.7-11.5
			c4.7-7.6,7-17.5,7-29.6V214H594.7z"/>
		<path class="quadrant-gris" d="M751.1,214v111.3h-35.7v-13.8c-10.7,11.2-23.1,16.8-37.2,16.8c-16.5,0-29.9-4.9-40.1-14.8
			c-10.3-9.8-15.4-24.5-15.4-43.8c0-12.2,2.5-23,7.5-32.2c5-9.3,11.7-16.4,20-21.5c8.3-5.1,17.2-7.6,26.8-7.6
			c9.8,0,17.7,1.5,23.4,4.5c5.8,3,10.9,7.2,15.3,12.6L718,214H751.1z M715.5,282.5v-27.3c-2-5.4-5.6-9.8-10.6-13
			c-5-3.2-10.9-4.8-17.7-4.8c-7.8,0-14.5,2.9-20,8.7c-5.5,5.8-8.3,13.1-8.3,21.9c0,5.8,1.4,11.1,4.1,15.9c2.7,4.8,6.3,8.6,10.8,11.3
			c4.5,2.7,9.4,4.1,14.6,4.1C700.9,299.4,709.9,293.8,715.5,282.5z"/>
		<path class="quadrant-gris" d="M910.1,124.3v201h-35.7v-11.7c-12.9,9.8-26.7,14.8-41.3,14.8c-10.4,0-19.6-2.5-27.8-7.4
			c-8.2-4.9-14.6-12-19.2-21.1c-4.7-9.2-7-20-7-32.4c0-12.2,2.5-22.8,7.5-31.7c5-8.9,11.9-15.7,20.8-20.4c8.8-4.7,18.9-7,30.3-7
			c7.3,0,14.2,1.1,20.6,3.4c6.5,2.3,11.9,5.6,16.3,10.1v-97.6H910.1z M862.7,294.1c4.8-2.8,8.7-7,11.7-12.6v-27.3
			c-2-5.4-5.7-9.8-11-13c-5.3-3.2-11.5-4.8-18.6-4.8c-8,0-14.9,2.9-20.8,8.7c-5.9,5.8-8.8,13.1-8.8,21.9c0,5.8,1.4,11.1,4.1,15.9
			c2.7,4.8,6.3,8.6,10.8,11.3c4.5,2.7,9.4,4.1,14.6,4.1C852,298.3,858,296.9,862.7,294.1z"/>
		<path class="quadrant-gris" d="M994.3,223.4c5.4-4.8,10.8-8.4,16.4-11.1c5.6-2.6,10-4,13.2-4l-1.8,35.7c-1-0.2-2.5-0.3-4.3-0.3
			c-7.1,0-13.4,1.9-18.9,5.6c-5.4,3.7-9.6,8.5-12.5,14.4c-2.9,5.9-4.3,11.9-4.3,18v43.6h-35.4V214h32.1l2.8,25.5
			C984.7,233.6,989,228.2,994.3,223.4z"/>
		<path class="quadrant-gris" d="M1167.1,214v111.3h-35.7v-13.8c-10.7,11.2-23.1,16.8-37.2,16.8c-16.5,0-29.9-4.9-40.1-14.8
			c-10.3-9.8-15.4-24.5-15.4-43.8c0-12.2,2.5-23,7.5-32.2c5-9.3,11.7-16.4,20-21.5c8.3-5.1,17.2-7.6,26.8-7.6
			c9.8,0,17.7,1.5,23.4,4.5c5.8,3,10.9,7.2,15.3,12.6l2.3-11.5H1167.1z M1131.5,282.5v-27.3c-2-5.4-5.6-9.8-10.6-13
			c-5-3.2-10.9-4.8-17.7-4.8c-7.8,0-14.5,2.9-20,8.7c-5.5,5.8-8.3,13.1-8.3,21.9c0,5.8,1.4,11.1,4.1,15.9c2.7,4.8,6.3,8.6,10.8,11.3
			c4.5,2.7,9.4,4.1,14.6,4.1C1116.9,299.4,1125.9,293.8,1131.5,282.5z"/>
		<path class="quadrant-gris" d="M1307.6,218.1c7,6.3,10.7,14.3,10.8,23.9v83.3h-35.7v-70.1c-0.5-10.9-5.9-16.3-16.3-16.3
			c-8.2,0-14.7,3.8-19.6,11.5c-4.9,7.6-7.4,17.5-7.4,29.6v45.3h-35.7V214h32.4l2.5,17.8c4.1-7.3,9.7-13,16.9-17.1
			c7.2-4.1,15.8-6.1,25.6-6.1C1291.8,208.7,1300.6,211.8,1307.6,218.1z"/>
		<path class="quadrant-gris" d="M1401.3,165.1v48.4h27v27.8h-27v84.1h-35.7v-84.1h-17.3v-27.8h17.3v-48.4H1401.3z"/>
	</g>
</g>
</svg>
