<?xml version="1.0" encoding="utf-8"?>
<!-- Generator: Adobe Illustrator 22.1.0, SVG Export Plug-In . SVG Version: 6.00 Build 0)  -->
<svg version="1.1" id="Layer_1" xmlns="http://www.w3.org/2000/svg" xmlns:xlink="http://www.w3.org/1999/xlink" x="0px" y="0px"
	 viewBox="0 0 903.5 270.3" style="enable-background:new 0 0 903.5 270.3;" xml:space="preserve">
<style type="text/css">
	.st0{clip-path:url(#SVGID_2_);fill:url(#SVGID_3_);}
</style>
<g>
	<defs>
		<path id="SVGID_1_" d="M353.7,135.4v28.7c0,7.6-1.5,13.9-4.4,18.7c-3,4.8-6.9,7.3-11.8,7.3c-6,0-9.2-3.4-9.5-10.3v-44.3h-22.6
			v52.7c0.1,6.1,2.3,11.2,6.6,15.1c4.3,4,9.7,6,16.1,6c6,0,11.2-1.3,15.7-3.9c4.5-2.6,7.9-6.2,10.4-10.7l1.6,11.3h20.5v-70.4H353.7z
			 M236.1,174.5v61.7h-61.7C184.6,207.4,207.4,184.6,236.1,174.5 M134.9,269.9h134.9V134.9C195.4,134.9,134.9,195.4,134.9,269.9
			 M794.4,135.9c-4.6,2.6-8.1,6.2-10.7,10.8l-1.6-11.3h-20.5v70.4h22.6v-28.7c0-7.6,1.6-13.9,4.7-18.7c3.1-4.8,7.2-7.3,12.4-7.3
			c6.5,0,10,3.4,10.3,10.3v44.3h22.6v-52.7c-0.1-6.1-2.4-11.2-6.8-15.2c-4.5-4-10-6-16.7-6C804.3,132,798.9,133.3,794.4,135.9
			 M426.3,186.8c-2.8-1.7-5.1-4.1-6.8-7.2c-1.7-3.1-2.6-6.4-2.6-10.1c0-5.6,1.7-10.2,5.2-13.9c3.5-3.6,7.7-5.5,12.6-5.5
			c4.3,0,8,1,11.2,3.1c3.2,2,5.4,4.8,6.7,8.2v17.2c-3.5,7.1-9.2,10.6-17.1,10.6C432.2,189.4,429.1,188.5,426.3,186.8 M411.4,136.7
			c-5.3,3.2-9.5,7.8-12.7,13.6c-3.2,5.9-4.7,12.7-4.7,20.4c0,12.3,3.2,21.5,9.7,27.7c6.5,6.2,15,9.3,25.4,9.3
			c8.9,0,16.8-3.5,23.5-10.6v8.7h22.6v-70.4h-20.9l-1.5,7.3c-2.8-3.4-6-6.1-9.7-8c-3.7-1.9-8.6-2.8-14.8-2.8
			C422.3,131.8,416.6,133.5,411.4,136.7 M639.4,134.4c-3.5,1.7-7,4-10.4,7c-3.4,3-6,6.4-8,10.2l-1.8-16.1H599v70.4h22.4v-27.6
			c0-3.9,0.9-7.7,2.7-11.4c1.8-3.7,4.5-6.7,7.9-9.1c3.4-2.4,7.4-3.5,11.9-3.5c1.2,0,2.1,0,2.7,0.2l1.1-22.6
			C645.7,131.8,642.9,132.7,639.4,134.4 M689.4,186.8c-2.8-1.7-5.1-4.1-6.8-7.2c-1.7-3.1-2.6-6.4-2.6-10.1c0-5.6,1.7-10.2,5.2-13.9
			c3.5-3.6,7.7-5.5,12.6-5.5c4.3,0,8,1,11.2,3.1c3.2,2,5.4,4.8,6.7,8.2v17.2c-3.5,7.1-9.2,10.6-17.1,10.6
			C695.4,189.4,692.3,188.5,689.4,186.8 M674.5,136.7c-5.3,3.2-9.5,7.8-12.7,13.6c-3.2,5.9-4.8,12.7-4.8,20.4
			c0,12.3,3.3,21.5,9.8,27.7c6.5,6.2,15,9.3,25.4,9.3c8.9,0,16.8-3.5,23.5-10.6v8.7h22.6v-70.4h-21l-1.5,7.3c-2.8-3.4-6-6.1-9.7-8
			c-3.7-1.9-8.6-2.8-14.8-2.8C685.4,131.8,679.8,133.5,674.5,136.7 M863.9,104.5v30.6h-11v17.6h11v53.2h22.6v-53.2h17.1v-17.6h-17.1
			v-30.6H863.9z M525.2,186.2c-2.9-1.7-5.1-4.1-6.9-7.2c-1.7-3.1-2.6-6.4-2.6-10.1c0-5.6,1.8-10.2,5.6-13.9
			c3.7-3.7,8.1-5.5,13.1-5.5c4.5,0,8.4,1,11.8,3.1c3.3,2,5.6,4.8,6.9,8.2v17.3c-1.9,3.5-4.4,6.2-7.4,8c-3,1.8-6.8,2.6-11.3,2.6
			C531.1,188.7,528.1,187.9,525.2,186.2 M553.3,78.7v61.7c-2.8-2.8-6.2-4.9-10.3-6.4c-4.1-1.5-8.4-2.2-13.1-2.2
			c-7.2,0-13.6,1.5-19.2,4.4c-5.6,3-10,7.3-13.1,12.9c-3.2,5.6-4.8,12.3-4.8,20.1c0,7.8,1.5,14.7,4.4,20.5c3,5.8,7,10.3,12.2,13.4
			c5.2,3.1,11,4.7,17.6,4.7c9.2,0,17.9-3.1,26.1-9.3v7.4h22.6V78.7H553.3z M0,134.9c0,68.8,51.5,125.5,118.1,133.9v-34.1
			c-47.9-8-84.3-49.6-84.3-99.8C33.7,79,79,33.7,134.9,33.7c50.1,0,91.7,36.5,99.8,84.3h34.1C260.5,51.5,203.7,0,134.9,0
			C60.4,0,0,60.4,0,134.9"/>
	</defs>
	<clipPath id="SVGID_2_">
		<use xlink:href="#SVGID_1_"  style="overflow:visible;"/>
	</clipPath>
	
		<linearGradient id="SVGID_3_" gradientUnits="userSpaceOnUse" x1="-506.4749" y1="676.6859" x2="-500.3661" y2="676.6859" gradientTransform="matrix(147.9082 0 0 -147.9082 74911.8125 100222.3438)">
		<stop  offset="0" style="stop-color:#6F6BA3"/>
		<stop  offset="1" style="stop-color:#53DD6C"/>
	</linearGradient>
	<rect class="st0" width="903.5" height="269.9"/>
</g>
<path d="M309.7,269.3c-1.4-0.7-2.5-1.7-3.2-2.9c-0.8-1.2-1.2-2.7-1.2-4.3v-15c0-0.3,0.1-0.5,0.3-0.7c0.2-0.2,0.4-0.2,0.7-0.2
	c0.3,0,0.5,0.1,0.7,0.2c0.2,0.2,0.2,0.4,0.2,0.7v15c0,1.2,0.3,2.3,0.9,3.3c0.6,1,1.5,1.7,2.6,2.3c1.1,0.5,2.4,0.8,3.8,0.8
	c1.4,0,2.7-0.3,3.8-0.8c1.1-0.5,2-1.3,2.6-2.3c0.6-1,0.9-2.1,0.9-3.3v-15c0-0.3,0.1-0.5,0.3-0.7c0.2-0.2,0.4-0.2,0.6-0.2
	c0.3,0,0.5,0.1,0.7,0.2c0.2,0.2,0.2,0.4,0.2,0.7v15c0,1.6-0.4,3-1.2,4.3c-0.8,1.2-1.9,2.2-3.2,2.9c-1.4,0.7-3,1-4.7,1
	C312.7,270.3,311.1,270,309.7,269.3"/>
<path d="M335.4,269c-1.4-0.8-2.4-1.8-3.1-3.2c-0.1-0.1-0.1-0.2-0.1-0.4c0-0.2,0.1-0.4,0.3-0.6c0.2-0.2,0.4-0.2,0.7-0.2
	c0.4,0,0.7,0.2,0.9,0.6c0.5,1,1.4,1.8,2.4,2.4c1.1,0.6,2.4,0.8,3.9,0.8c1.7,0,3.1-0.4,4.1-1.3c1-0.9,1.5-2.1,1.5-3.7
	c0-1.4-0.5-2.5-1.5-3.4c-1-0.9-2.4-1.5-4.3-1.8c-2.2-0.3-4-1-5.3-2.2c-1.3-1.1-1.9-2.5-1.9-4.2c0-1.2,0.3-2.2,0.9-3.1
	c0.6-0.9,1.4-1.6,2.5-2.1c1.1-0.5,2.3-0.7,3.7-0.7c1.5,0,2.8,0.3,4.1,1.1c1.2,0.7,2.1,1.6,2.7,2.5c0.1,0.1,0.1,0.3,0.1,0.5
	c0,0.2,0,0.3-0.1,0.4c-0.1,0.1-0.2,0.2-0.4,0.3c-0.1,0-0.2,0.1-0.4,0.1c-0.4,0-0.7-0.2-0.9-0.5c-1.2-1.8-2.9-2.6-5.2-2.6
	c-1.7,0-3,0.4-3.9,1.1c-0.9,0.8-1.4,1.8-1.4,3.2c0,1.1,0.5,2.1,1.4,2.9c0.9,0.8,2.4,1.3,4.3,1.6c2.5,0.4,4.4,1.2,5.6,2.4
	c1.2,1.1,1.8,2.6,1.8,4.5c0,1.4-0.3,2.6-0.9,3.6c-0.6,1-1.5,1.8-2.6,2.4c-1.1,0.5-2.4,0.8-3.9,0.8
	C338.4,270.1,336.8,269.7,335.4,269"/>
<path d="M356.7,269.6c-0.2-0.2-0.3-0.4-0.3-0.7V247c0-0.3,0.1-0.5,0.3-0.7c0.2-0.2,0.4-0.3,0.6-0.3h14.6c0.2,0,0.5,0.1,0.6,0.3
	c0.2,0.2,0.3,0.4,0.3,0.7c0,0.2-0.1,0.5-0.3,0.6c-0.2,0.2-0.4,0.3-0.6,0.3h-13.7v9.1h10c0.3,0,0.5,0.1,0.7,0.3
	c0.2,0.2,0.3,0.4,0.3,0.7c0,0.3-0.1,0.5-0.3,0.7c-0.2,0.2-0.4,0.3-0.7,0.3h-10v9.1h13.7c0.2,0,0.5,0.1,0.6,0.3
	c0.2,0.2,0.3,0.4,0.3,0.6c0,0.3-0.1,0.5-0.3,0.7c-0.2,0.2-0.4,0.3-0.6,0.3h-14.6C357.1,269.8,356.9,269.7,356.7,269.6"/>
<path d="M395.5,269.1c0,0.2-0.1,0.4-0.3,0.5c-0.2,0.1-0.4,0.2-0.7,0.2c-0.2,0-0.4,0-0.5-0.1c-0.1-0.1-0.2-0.2-0.3-0.4l-5.6-8.9h-0.5
	h-4.9v8.5c0,0.3-0.1,0.5-0.2,0.7c-0.2,0.2-0.4,0.3-0.7,0.3c-0.3,0-0.5-0.1-0.7-0.3c-0.2-0.2-0.3-0.4-0.3-0.7V247
	c0-0.3,0.1-0.5,0.3-0.7c0.2-0.2,0.4-0.2,0.7-0.2h5.8c1.5,0,2.8,0.3,3.9,0.9s2.1,1.5,2.7,2.5c0.6,1.1,1,2.3,1,3.7
	c0,1.7-0.5,3.1-1.4,4.3c-0.9,1.2-2.2,2-3.7,2.5l5.2,8.3C395.4,268.7,395.5,268.9,395.5,269.1 M387.6,258.6c1.1,0,2.1-0.2,3-0.7
	c0.9-0.5,1.6-1.1,2.1-1.9c0.5-0.8,0.7-1.7,0.7-2.7c0-1-0.2-2-0.7-2.8c-0.5-0.8-1.2-1.5-2.1-1.9c-0.9-0.5-1.9-0.7-3-0.7h-4.9v10.6
	H387.6z"/>
<path d="M415.7,269.6c-0.2-0.2-0.3-0.4-0.3-0.7V247c0-0.3,0.1-0.5,0.3-0.7c0.2-0.2,0.4-0.3,0.7-0.3H431c0.2,0,0.5,0.1,0.6,0.3
	c0.2,0.2,0.3,0.4,0.3,0.7c0,0.2-0.1,0.5-0.3,0.6c-0.2,0.2-0.4,0.3-0.6,0.3h-13.7v9.1h10c0.3,0,0.5,0.1,0.7,0.3
	c0.2,0.2,0.3,0.4,0.3,0.7c0,0.3-0.1,0.5-0.3,0.7c-0.2,0.2-0.4,0.3-0.7,0.3h-10v9.1H431c0.2,0,0.5,0.1,0.6,0.3
	c0.2,0.2,0.3,0.4,0.3,0.6c0,0.3-0.1,0.5-0.3,0.7c-0.2,0.2-0.4,0.3-0.6,0.3h-14.6C416.1,269.8,415.9,269.7,415.7,269.6"/>
<path d="M456.8,268.9c0,0.2-0.1,0.4-0.2,0.6c-0.2,0.2-0.4,0.3-0.6,0.3c-0.1,0-0.3,0-0.4-0.1c-0.1,0-0.2-0.1-0.3-0.2l-7.7-10.7
	l-7.7,10.7c-0.2,0.2-0.4,0.3-0.7,0.3c-0.3,0-0.5-0.1-0.6-0.2c-0.2-0.2-0.3-0.4-0.3-0.6c0-0.2,0.1-0.4,0.2-0.6l7.8-10.8l-7.2-10
	c-0.1-0.2-0.2-0.4-0.2-0.6c0-0.2,0.1-0.4,0.2-0.6c0.2-0.2,0.4-0.2,0.6-0.2c0.3,0,0.6,0.1,0.8,0.4l7.1,9.9l7.1-9.9
	c0.2-0.3,0.5-0.4,0.8-0.4c0.3,0,0.5,0.1,0.6,0.3c0.2,0.2,0.3,0.4,0.3,0.7c0,0.2,0,0.3-0.1,0.5l-7.3,10.1l7.8,10.7
	C456.8,268.5,456.8,268.7,456.8,268.9"/>
<path d="M465.1,269.6c-0.2-0.2-0.3-0.4-0.3-0.7V247c0-0.3,0.1-0.5,0.3-0.7c0.2-0.2,0.4-0.2,0.7-0.2h6.1c1.5,0,2.8,0.3,3.9,1
	c1.1,0.6,2.1,1.5,2.7,2.7c0.6,1.2,1,2.5,1,3.9c0,1.5-0.3,2.8-1,3.9c-0.6,1.2-1.5,2.1-2.7,2.7c-1.2,0.6-2.5,1-3.9,1h-5.2v7.6
	c0,0.3-0.1,0.5-0.2,0.7c-0.2,0.2-0.4,0.3-0.7,0.3C465.5,269.8,465.3,269.7,465.1,269.6 M471.8,259.5c1.1,0,2.1-0.2,3-0.7
	c0.9-0.5,1.6-1.2,2-2.1c0.5-0.9,0.7-1.9,0.7-3c0-1.1-0.2-2.1-0.7-3c-0.5-0.9-1.2-1.5-2-2c-0.9-0.5-1.9-0.7-3-0.7h-5.2v11.6H471.8z"
	/>
<path d="M487.1,269.6c-0.2-0.2-0.3-0.4-0.3-0.7V247c0-0.3,0.1-0.5,0.3-0.7c0.2-0.2,0.4-0.3,0.6-0.3h14.6c0.2,0,0.5,0.1,0.6,0.3
	c0.2,0.2,0.3,0.4,0.3,0.7c0,0.2-0.1,0.5-0.3,0.6c-0.2,0.2-0.4,0.3-0.6,0.3h-13.7v9.1h10c0.3,0,0.5,0.1,0.7,0.3
	c0.2,0.2,0.3,0.4,0.3,0.7c0,0.3-0.1,0.5-0.3,0.7c-0.2,0.2-0.4,0.3-0.7,0.3h-10v9.1h13.7c0.2,0,0.5,0.1,0.6,0.3
	c0.2,0.2,0.3,0.4,0.3,0.6c0,0.3-0.1,0.5-0.3,0.7c-0.2,0.2-0.4,0.3-0.6,0.3h-14.6C487.5,269.8,487.3,269.7,487.1,269.6"/>
<path d="M525.9,269.1c0,0.2-0.1,0.4-0.3,0.5c-0.2,0.1-0.4,0.2-0.7,0.2c-0.2,0-0.4,0-0.5-0.1c-0.1-0.1-0.2-0.2-0.3-0.4l-5.6-8.9H518
	h-4.9v8.5c0,0.3-0.1,0.5-0.2,0.7c-0.2,0.2-0.4,0.3-0.7,0.3c-0.3,0-0.5-0.1-0.7-0.3c-0.2-0.2-0.3-0.4-0.3-0.7V247
	c0-0.3,0.1-0.5,0.3-0.7c0.2-0.2,0.4-0.2,0.7-0.2h5.8c1.5,0,2.8,0.3,3.9,0.9s2.1,1.5,2.7,2.5c0.6,1.1,1,2.3,1,3.7
	c0,1.7-0.5,3.1-1.4,4.3c-0.9,1.2-2.2,2-3.7,2.5l5.2,8.3C525.8,268.7,525.9,268.9,525.9,269.1 M518,258.6c1.1,0,2.1-0.2,3-0.7
	c0.9-0.5,1.6-1.1,2-1.9c0.5-0.8,0.7-1.7,0.7-2.7c0-1-0.3-2-0.7-2.8c-0.5-0.8-1.2-1.5-2-1.9c-0.9-0.5-1.9-0.7-3-0.7h-4.9v10.6H518z"
	/>
<path d="M533.6,269.6c-0.2-0.2-0.3-0.4-0.3-0.7V247c0-0.3,0.1-0.5,0.3-0.7c0.2-0.2,0.4-0.3,0.6-0.3c0.3,0,0.5,0.1,0.7,0.3
	c0.2,0.2,0.3,0.4,0.3,0.7v21.9c0,0.3-0.1,0.5-0.3,0.7c-0.2,0.2-0.4,0.3-0.7,0.3C534,269.8,533.8,269.7,533.6,269.6"/>
<path d="M545.1,269.6c-0.2-0.2-0.3-0.4-0.3-0.7V247c0-0.3,0.1-0.5,0.3-0.7c0.2-0.2,0.4-0.3,0.7-0.3h14.6c0.2,0,0.5,0.1,0.6,0.3
	c0.2,0.2,0.3,0.4,0.3,0.7c0,0.2-0.1,0.5-0.3,0.6c-0.2,0.2-0.4,0.3-0.6,0.3h-13.7v9.1h10c0.3,0,0.5,0.1,0.7,0.3
	c0.2,0.2,0.3,0.4,0.3,0.7c0,0.3-0.1,0.5-0.3,0.7c-0.2,0.2-0.4,0.3-0.7,0.3h-10v9.1h13.7c0.2,0,0.5,0.1,0.6,0.3
	c0.2,0.2,0.3,0.4,0.3,0.6c0,0.3-0.1,0.5-0.3,0.7c-0.2,0.2-0.4,0.3-0.6,0.3h-14.6C545.5,269.8,545.3,269.7,545.1,269.6"/>
<path d="M569.6,269.6c-0.2-0.2-0.3-0.4-0.3-0.7V247c0-0.3,0.1-0.5,0.3-0.7c0.2-0.2,0.4-0.3,0.6-0.3c0.3,0,0.5,0.1,0.7,0.3l15.4,20
	V247c0-0.3,0.1-0.5,0.3-0.7c0.2-0.2,0.4-0.3,0.7-0.3c0.2,0,0.5,0.1,0.6,0.3c0.2,0.2,0.3,0.4,0.3,0.7v21.9c0,0.3-0.1,0.5-0.3,0.7
	c-0.2,0.2-0.4,0.3-0.6,0.3c-0.3,0-0.5-0.1-0.7-0.3l-15.4-20.1v19.4c0,0.3-0.1,0.5-0.3,0.7c-0.2,0.2-0.4,0.3-0.7,0.3
	S569.8,269.7,569.6,269.6"/>
<path d="M602.6,268.5c-1.8-1.1-3.3-2.6-4.3-4.5c-1.1-1.9-1.6-3.9-1.6-6.1c0-2.2,0.5-4.2,1.6-6c1.1-1.9,2.5-3.3,4.3-4.4
	c1.8-1.1,3.8-1.6,6-1.6c2.8,0,5.3,0.9,7.5,2.7c0.2,0.1,0.3,0.3,0.3,0.6c0,0.2-0.1,0.5-0.2,0.7c-0.2,0.2-0.4,0.3-0.7,0.3
	c-0.2,0-0.5-0.1-0.8-0.4c-1.5-1.4-3.6-2.1-6.1-2.1c-1.8,0-3.5,0.5-5,1.4c-1.5,1-2.8,2.2-3.7,3.8c-0.9,1.6-1.4,3.3-1.4,5.1
	c0,1.9,0.5,3.6,1.4,5.2c0.9,1.6,2.1,2.8,3.7,3.8c1.5,0.9,3.2,1.4,5,1.4c2.4,0,4.5-0.7,6.3-2.2c0.1-0.1,0.3-0.2,0.5-0.2
	c0.2,0,0.5,0.1,0.7,0.3c0.2,0.2,0.3,0.4,0.3,0.7c0,0.3-0.1,0.5-0.2,0.6c-1.7,1.7-4.2,2.6-7.5,2.6
	C606.4,270.1,604.4,269.6,602.6,268.5"/>
<path d="M625,269.6c-0.2-0.2-0.3-0.4-0.3-0.7V247c0-0.3,0.1-0.5,0.3-0.7c0.2-0.2,0.4-0.3,0.6-0.3h14.6c0.2,0,0.5,0.1,0.6,0.3
	c0.2,0.2,0.3,0.4,0.3,0.7c0,0.2-0.1,0.5-0.3,0.6c-0.2,0.2-0.4,0.3-0.6,0.3h-13.7v9.1h10c0.3,0,0.5,0.1,0.7,0.3
	c0.2,0.2,0.3,0.4,0.3,0.7c0,0.3-0.1,0.5-0.3,0.7c-0.2,0.2-0.4,0.3-0.7,0.3h-10v9.1h13.7c0.2,0,0.5,0.1,0.6,0.3
	c0.2,0.2,0.3,0.4,0.3,0.6c0,0.3-0.1,0.5-0.3,0.7c-0.2,0.2-0.4,0.3-0.6,0.3h-14.6C625.4,269.8,625.2,269.7,625,269.6"/>
<path d="M662,269.6c-0.2-0.2-0.3-0.4-0.3-0.7V247c0-0.3,0.1-0.5,0.3-0.7c0.2-0.2,0.4-0.3,0.6-0.3c0.3,0,0.5,0.1,0.7,0.3l15.4,20V247
	c0-0.3,0.1-0.5,0.3-0.7c0.2-0.2,0.4-0.3,0.7-0.3c0.2,0,0.5,0.1,0.6,0.3c0.2,0.2,0.3,0.4,0.3,0.7v21.9c0,0.3-0.1,0.5-0.3,0.7
	c-0.2,0.2-0.4,0.3-0.6,0.3c-0.3,0-0.5-0.1-0.7-0.3l-15.4-20.1v19.4c0,0.3-0.1,0.5-0.3,0.7c-0.2,0.2-0.4,0.3-0.7,0.3
	C662.4,269.8,662.2,269.7,662,269.6"/>
<path d="M708.2,268.9c0,0.2-0.1,0.5-0.3,0.6c-0.2,0.2-0.4,0.3-0.6,0.3c-0.4,0-0.7-0.2-0.9-0.6l-2.2-5.4h-12.3l-2.2,5.4
	c-0.1,0.4-0.4,0.6-0.9,0.6c-0.3,0-0.5-0.1-0.7-0.3c-0.2-0.2-0.2-0.4-0.2-0.6c0-0.1,0-0.3,0.1-0.4l9.2-21.7c0.2-0.4,0.5-0.6,0.9-0.6
	c0.4,0,0.7,0.2,0.9,0.6l9.2,21.7C708.2,268.6,708.2,268.8,708.2,268.9 M692.5,262.2h11l-5.5-13.1L692.5,262.2z"/>
<path d="M731.5,246.4c0.1,0.2,0.2,0.4,0.2,0.6c0,0.2,0,0.4-0.1,0.6l-9.1,21.6c-0.2,0.4-0.5,0.6-0.8,0.6c-0.2,0-0.4,0-0.5-0.1
	c-0.1-0.1-0.2-0.2-0.3-0.4l-9.1-21.6c-0.1-0.3-0.1-0.5-0.1-0.6c0-0.3,0.1-0.5,0.3-0.6c0.2-0.1,0.4-0.2,0.7-0.2c0.2,0,0.4,0,0.5,0.1
	c0.1,0.1,0.3,0.3,0.4,0.5l8.3,19.8l8.2-19.7c0.1-0.3,0.2-0.5,0.4-0.6c0.2-0.1,0.4-0.2,0.6-0.2C731.2,246.1,731.4,246.2,731.5,246.4"
	/>
<path d="M739.2,269.6c-0.2-0.2-0.3-0.4-0.3-0.7V247c0-0.3,0.1-0.5,0.3-0.7c0.2-0.2,0.4-0.3,0.7-0.3c0.3,0,0.5,0.1,0.7,0.3
	c0.2,0.2,0.3,0.4,0.3,0.7v21.9c0,0.3-0.1,0.5-0.3,0.7c-0.2,0.2-0.4,0.3-0.7,0.3C739.6,269.8,739.4,269.7,739.2,269.6"/>
<path d="M768.6,258.5c0.2,0.2,0.3,0.4,0.3,0.6v7.7c0,0.1,0,0.3,0,0.3c0,0.1-0.1,0.2-0.2,0.3c-1.7,1.7-4.2,2.6-7.5,2.6
	c-2.1,0-4.1-0.5-5.9-1.6c-1.8-1.1-3.3-2.6-4.3-4.5c-1.1-1.9-1.6-3.9-1.6-6.1c0-2.2,0.5-4.2,1.6-6c1.1-1.9,2.5-3.3,4.3-4.4
	c1.8-1.1,3.8-1.6,6-1.6c2.8,0,5.3,0.9,7.5,2.7c0.2,0.1,0.3,0.3,0.3,0.6c0,0.2-0.1,0.5-0.2,0.7c-0.2,0.2-0.4,0.3-0.7,0.3
	c-0.2,0-0.5-0.1-0.8-0.4c-1.5-1.4-3.6-2.1-6.1-2.1c-1.8,0-3.4,0.5-5,1.4c-1.5,1-2.8,2.2-3.7,3.8c-0.9,1.6-1.4,3.3-1.4,5.1
	c0,1.9,0.5,3.6,1.3,5.2c0.9,1.6,2.1,2.8,3.7,3.8c1.6,0.9,3.2,1.4,5,1.4c2.2,0,4.2-0.6,5.9-1.9v-6.5h-5.1c-0.3,0-0.5-0.1-0.6-0.3
	c-0.2-0.2-0.3-0.4-0.3-0.6c0-0.2,0.1-0.4,0.3-0.6c0.2-0.1,0.4-0.2,0.6-0.2h6C768.2,258.3,768.4,258.4,768.6,258.5"/>
<path d="M795.3,268.9c0,0.2-0.1,0.5-0.3,0.6c-0.2,0.2-0.4,0.3-0.6,0.3c-0.4,0-0.7-0.2-0.9-0.6l-2.2-5.4H779l-2.2,5.4
	c-0.1,0.4-0.4,0.6-0.9,0.6c-0.3,0-0.5-0.1-0.7-0.3c-0.2-0.2-0.3-0.4-0.3-0.6c0-0.1,0-0.3,0.1-0.4l9.2-21.7c0.2-0.4,0.5-0.6,0.9-0.6
	c0.4,0,0.7,0.2,0.9,0.6l9.2,21.7C795.3,268.6,795.3,268.8,795.3,268.9 M779.7,262.2h11l-5.5-13.1L779.7,262.2z"/>
<path d="M817.2,246.4c0.2,0.2,0.2,0.3,0.2,0.6s-0.1,0.4-0.2,0.6c-0.1,0.2-0.3,0.2-0.6,0.2h-7.7v21.1c0,0.3-0.1,0.5-0.3,0.7
	c-0.2,0.2-0.4,0.3-0.7,0.3c-0.3,0-0.5-0.1-0.6-0.3c-0.2-0.2-0.3-0.4-0.3-0.7v-21.1h-7.7c-0.2,0-0.4-0.1-0.6-0.2
	c-0.1-0.1-0.2-0.3-0.2-0.6s0.1-0.4,0.2-0.6c0.2-0.1,0.4-0.2,0.6-0.2h17.2C816.8,246.1,817,246.2,817.2,246.4"/>
<path d="M824.8,269.6c-0.2-0.2-0.3-0.4-0.3-0.7V247c0-0.3,0.1-0.5,0.3-0.7c0.2-0.2,0.4-0.3,0.6-0.3c0.3,0,0.5,0.1,0.7,0.3
	c0.2,0.2,0.3,0.4,0.3,0.7v21.9c0,0.3-0.1,0.5-0.3,0.7c-0.2,0.2-0.4,0.3-0.7,0.3C825.2,269.8,825,269.7,824.8,269.6"/>
<path d="M840.8,268.5c-1.9-1.1-3.3-2.5-4.4-4.4c-1.1-1.9-1.6-3.9-1.6-6.2c0-2.3,0.5-4.3,1.6-6.2c1.1-1.9,2.5-3.3,4.4-4.4
	c1.9-1.1,3.9-1.6,6.2-1.6c2.3,0,4.3,0.5,6.2,1.6c1.8,1.1,3.3,2.5,4.4,4.4c1.1,1.8,1.6,3.9,1.6,6.2c0,2.3-0.5,4.4-1.6,6.2
	c-1.1,1.9-2.5,3.3-4.4,4.4c-1.9,1.1-3.9,1.6-6.2,1.6C844.7,270.1,842.7,269.6,840.8,268.5 M852.3,267c1.6-0.9,2.8-2.1,3.7-3.7
	c0.9-1.6,1.4-3.3,1.4-5.3c0-1.9-0.4-3.7-1.4-5.2c-0.9-1.6-2.1-2.8-3.7-3.7c-1.6-0.9-3.3-1.4-5.2-1.4c-1.9,0-3.7,0.5-5.3,1.4
	c-1.6,0.9-2.8,2.1-3.7,3.7c-0.9,1.6-1.3,3.3-1.3,5.2c0,1.9,0.4,3.7,1.3,5.3c0.9,1.6,2.1,2.8,3.7,3.7c1.6,0.9,3.3,1.4,5.3,1.4
	C848.9,268.3,850.7,267.9,852.3,267"/>
<path d="M867.9,269.6c-0.2-0.2-0.3-0.4-0.3-0.7V247c0-0.3,0.1-0.5,0.3-0.7c0.2-0.2,0.4-0.3,0.6-0.3c0.3,0,0.5,0.1,0.7,0.3l15.4,20
	V247c0-0.3,0.1-0.5,0.3-0.7c0.2-0.2,0.4-0.3,0.7-0.3c0.2,0,0.5,0.1,0.6,0.3c0.2,0.2,0.3,0.4,0.3,0.7v21.9c0,0.3-0.1,0.5-0.3,0.7
	c-0.2,0.2-0.4,0.3-0.6,0.3c-0.3,0-0.5-0.1-0.7-0.3l-15.4-20.1v19.4c0,0.3-0.1,0.5-0.3,0.7c-0.2,0.2-0.4,0.3-0.7,0.3
	C868.3,269.8,868.1,269.7,867.9,269.6"/>
</svg>
