<?xml version="1.0" encoding="utf-8"?>
<!-- Generator: Adobe Illustrator 22.1.0, SVG Export Plug-In . SVG Version: 6.00 Build 0)  -->
<svg version="1.1" id="logo_white" xmlns="http://www.w3.org/2000/svg" xmlns:xlink="http://www.w3.org/1999/xlink" x="0px" y="0px"
	 viewBox="0 0 150 46" style="enable-background:new 0 0 150 46;" xml:space="preserve">
<style type="text/css">
	.st0{fill:#FFFFFF;}
</style>
<g>
	<path class="st0" d="M23.1,45.1h22.1V23C33,23,23.1,32.9,23.1,45.1 M39.7,39.5H29.6c1.7-4.7,5.4-8.4,10.1-10.1V39.5z"/>
	<path class="st0" d="M20.4,44.9C9.5,43.5,1,34.2,1,23C1,10.8,10.9,0.9,23.1,0.9c11.3,0,20.6,8.4,21.9,19.3h-5.6
		c-1.3-7.8-8.1-13.8-16.3-13.8C14,6.4,6.6,13.8,6.6,23c0,8.2,6,15,13.8,16.3V44.9z"/>
	<path class="st0" d="M62.6,23v11.5h-3.4L59,32.7c-0.4,0.7-1,1.3-1.7,1.8c-0.7,0.4-1.6,0.6-2.6,0.6c-1.1,0-1.9-0.3-2.6-1
		c-0.7-0.7-1.1-1.5-1.1-2.5V23h3.7v7.3c0.1,1.1,0.6,1.7,1.6,1.7c0.8,0,1.5-0.4,1.9-1.2c0.5-0.8,0.7-1.8,0.7-3.1V23H62.6z"/>
	<path class="st0" d="M78.8,23v11.5h-3.7v-1.4c-1.1,1.2-2.4,1.7-3.9,1.7c-1.7,0-3.1-0.5-4.2-1.5c-1.1-1-1.6-2.5-1.6-4.5
		c0-1.3,0.3-2.4,0.8-3.3c0.5-1,1.2-1.7,2.1-2.2c0.9-0.5,1.8-0.8,2.8-0.8c1,0,1.8,0.2,2.4,0.5c0.6,0.3,1.1,0.7,1.6,1.3l0.2-1.2H78.8z
		 M75.1,30.1v-2.8c-0.2-0.6-0.6-1-1.1-1.3c-0.5-0.3-1.1-0.5-1.8-0.5c-0.8,0-1.5,0.3-2.1,0.9c-0.6,0.6-0.9,1.4-0.9,2.3
		c0,0.6,0.1,1.1,0.4,1.6c0.3,0.5,0.7,0.9,1.1,1.2c0.5,0.3,1,0.4,1.5,0.4C73.6,31.9,74.6,31.3,75.1,30.1"/>
	<path class="st0" d="M95.3,13.8v20.8h-3.7v-1.2c-1.3,1-2.8,1.5-4.3,1.5c-1.1,0-2-0.3-2.9-0.8c-0.8-0.5-1.5-1.2-2-2.2
		c-0.5-0.9-0.7-2.1-0.7-3.4c0-1.3,0.3-2.4,0.8-3.3c0.5-0.9,1.2-1.6,2.1-2.1c0.9-0.5,2-0.7,3.1-0.7c0.8,0,1.5,0.1,2.1,0.4
		c0.7,0.2,1.2,0.6,1.7,1V13.8H95.3z M90.4,31.3c0.5-0.3,0.9-0.7,1.2-1.3v-2.8c-0.2-0.6-0.6-1-1.1-1.3c-0.5-0.3-1.2-0.5-1.9-0.5
		c-0.8,0-1.5,0.3-2.1,0.9c-0.6,0.6-0.9,1.4-0.9,2.3c0,0.6,0.1,1.1,0.4,1.6c0.3,0.5,0.7,0.9,1.1,1.2c0.5,0.3,1,0.4,1.5,0.4
		C89.3,31.8,89.9,31.6,90.4,31.3"/>
	<path class="st0" d="M104,24c0.6-0.5,1.1-0.9,1.7-1.1c0.6-0.3,1-0.4,1.4-0.4l-0.2,3.7c-0.1,0-0.3,0-0.4,0c-0.7,0-1.4,0.2-2,0.6
		c-0.6,0.4-1,0.9-1.3,1.5c-0.3,0.6-0.4,1.2-0.4,1.9v4.5h-3.7V23h3.3l0.3,2.6C103,25.1,103.5,24.5,104,24"/>
	<path class="st0" d="M121.9,23v11.5h-3.7v-1.4c-1.1,1.2-2.4,1.7-3.9,1.7c-1.7,0-3.1-0.5-4.2-1.5c-1.1-1-1.6-2.5-1.6-4.5
		c0-1.3,0.3-2.4,0.8-3.3c0.5-1,1.2-1.7,2.1-2.2c0.9-0.5,1.8-0.8,2.8-0.8c1,0,1.8,0.2,2.4,0.5c0.6,0.3,1.1,0.7,1.6,1.3l0.2-1.2H121.9
		z M118.2,30.1v-2.8c-0.2-0.6-0.6-1-1.1-1.3c-0.5-0.3-1.1-0.5-1.8-0.5c-0.8,0-1.5,0.3-2.1,0.9c-0.6,0.6-0.9,1.4-0.9,2.3
		c0,0.6,0.1,1.1,0.4,1.6c0.3,0.5,0.7,0.9,1.1,1.2c0.5,0.3,1,0.4,1.5,0.4C116.7,31.9,117.6,31.3,118.2,30.1"/>
	<path class="st0" d="M136.5,23.5c0.7,0.7,1.1,1.5,1.1,2.5v8.6h-3.7v-7.3c-0.1-1.1-0.6-1.7-1.7-1.7c-0.8,0-1.5,0.4-2,1.2
		c-0.5,0.8-0.8,1.8-0.8,3.1v4.7h-3.7V23h3.4l0.3,1.8c0.4-0.8,1-1.3,1.8-1.8c0.7-0.4,1.6-0.6,2.7-0.6
		C134.8,22.5,135.7,22.8,136.5,23.5"/>
	<polygon class="st0" points="146.2,18 146.2,23 149,23 149,25.9 146.2,25.9 146.2,34.6 142.5,34.6 142.5,25.9 140.7,25.9 140.7,23 
		142.5,23 142.5,18 	"/>
	<path class="st0" d="M51.7,45c-0.2-0.1-0.4-0.3-0.5-0.5C51.1,44.3,51,44,51,43.8v-2.5c0,0,0-0.1,0-0.1c0,0,0.1,0,0.1,0
		c0,0,0.1,0,0.1,0c0,0,0,0.1,0,0.1v2.5c0,0.2,0,0.4,0.2,0.5c0.1,0.2,0.2,0.3,0.4,0.4c0.2,0.1,0.4,0.1,0.6,0.1c0.2,0,0.4,0,0.6-0.1
		c0.2-0.1,0.3-0.2,0.4-0.4c0.1-0.2,0.2-0.3,0.2-0.5v-2.5c0,0,0-0.1,0-0.1c0,0,0.1,0,0.1,0c0,0,0.1,0,0.1,0c0,0,0,0.1,0,0.1v2.5
		c0,0.3-0.1,0.5-0.2,0.7c-0.1,0.2-0.3,0.4-0.5,0.5c-0.2,0.1-0.5,0.2-0.8,0.2C52.2,45.1,52,45.1,51.7,45"/>
	<path class="st0" d="M56,44.9c-0.2-0.1-0.4-0.3-0.5-0.5c0,0,0,0,0-0.1c0,0,0-0.1,0-0.1c0,0,0.1,0,0.1,0c0.1,0,0.1,0,0.1,0.1
		c0.1,0.2,0.2,0.3,0.4,0.4c0.2,0.1,0.4,0.1,0.6,0.1c0.3,0,0.5-0.1,0.7-0.2c0.2-0.1,0.2-0.3,0.2-0.6c0-0.2-0.1-0.4-0.2-0.6
		c-0.2-0.1-0.4-0.2-0.7-0.3c-0.4-0.1-0.7-0.2-0.9-0.4c-0.2-0.2-0.3-0.4-0.3-0.7c0-0.2,0-0.4,0.1-0.5c0.1-0.1,0.2-0.3,0.4-0.3
		c0.2-0.1,0.4-0.1,0.6-0.1c0.2,0,0.5,0.1,0.7,0.2c0.2,0.1,0.4,0.3,0.4,0.4c0,0,0,0,0,0.1c0,0,0,0.1,0,0.1c0,0,0,0-0.1,0.1
		c0,0,0,0-0.1,0c-0.1,0-0.1,0-0.1-0.1c-0.2-0.3-0.5-0.4-0.8-0.4c-0.3,0-0.5,0.1-0.6,0.2c-0.2,0.1-0.2,0.3-0.2,0.5
		c0,0.2,0.1,0.3,0.2,0.5c0.2,0.1,0.4,0.2,0.7,0.3c0.4,0.1,0.7,0.2,0.9,0.4c0.2,0.2,0.3,0.4,0.3,0.7c0,0.2-0.1,0.4-0.2,0.6
		c-0.1,0.2-0.2,0.3-0.4,0.4c-0.2,0.1-0.4,0.1-0.6,0.1C56.4,45.1,56.2,45,56,44.9"/>
	<path class="st0" d="M59.4,45c0,0,0-0.1,0-0.1v-3.6c0,0,0-0.1,0-0.1c0,0,0.1,0,0.1,0h2.4c0,0,0.1,0,0.1,0c0,0,0,0.1,0,0.1
		c0,0,0,0.1,0,0.1c0,0-0.1,0-0.1,0h-2.2V43h1.6c0,0,0.1,0,0.1,0c0,0,0,0.1,0,0.1s0,0.1,0,0.1c0,0-0.1,0-0.1,0h-1.6v1.5h2.2
		c0,0,0.1,0,0.1,0c0,0,0,0.1,0,0.1c0,0,0,0.1,0,0.1c0,0-0.1,0-0.1,0h-2.4C59.5,45,59.5,45,59.4,45"/>
	<path class="st0" d="M65.8,44.9C65.8,45,65.8,45,65.8,44.9C65.7,45,65.7,45,65.6,45c0,0-0.1,0-0.1,0c0,0,0,0-0.1-0.1l-0.9-1.5h-0.1
		h-0.8v1.4c0,0,0,0.1,0,0.1c0,0-0.1,0-0.1,0c0,0-0.1,0-0.1,0c0,0,0-0.1,0-0.1v-3.6c0,0,0-0.1,0-0.1c0,0,0.1,0,0.1,0h0.9
		c0.2,0,0.5,0,0.6,0.1c0.2,0.1,0.3,0.2,0.4,0.4c0.1,0.2,0.2,0.4,0.2,0.6c0,0.3-0.1,0.5-0.2,0.7c-0.2,0.2-0.4,0.3-0.6,0.4l0.9,1.4
		C65.8,44.9,65.8,44.9,65.8,44.9 M64.5,43.2c0.2,0,0.3,0,0.5-0.1c0.1-0.1,0.3-0.2,0.3-0.3c0.1-0.1,0.1-0.3,0.1-0.4
		c0-0.2,0-0.3-0.1-0.5s-0.2-0.2-0.3-0.3c-0.1-0.1-0.3-0.1-0.5-0.1h-0.8v1.7H64.5z"/>
	<path class="st0" d="M69.1,45c0,0,0-0.1,0-0.1v-3.6c0,0,0-0.1,0-0.1c0,0,0.1,0,0.1,0h2.4c0,0,0.1,0,0.1,0c0,0,0,0.1,0,0.1
		c0,0,0,0.1,0,0.1c0,0-0.1,0-0.1,0h-2.2V43H71c0,0,0.1,0,0.1,0c0,0,0,0.1,0,0.1s0,0.1,0,0.1c0,0-0.1,0-0.1,0h-1.6v1.5h2.2
		c0,0,0.1,0,0.1,0c0,0,0,0.1,0,0.1c0,0,0,0.1,0,0.1c0,0-0.1,0-0.1,0h-2.4C69.2,45,69.1,45,69.1,45"/>
	<path class="st0" d="M75.8,44.9c0,0,0,0.1,0,0.1c0,0-0.1,0-0.1,0c0,0,0,0-0.1,0c0,0,0,0-0.1,0l-1.3-1.7L73.1,45c0,0-0.1,0-0.1,0
		c0,0-0.1,0-0.1,0c0,0,0-0.1,0-0.1c0,0,0-0.1,0-0.1l1.3-1.8l-1.2-1.6c0,0,0-0.1,0-0.1c0,0,0-0.1,0-0.1c0,0,0.1,0,0.1,0
		c0,0,0.1,0,0.1,0.1l1.2,1.6l1.2-1.6c0,0,0.1-0.1,0.1-0.1c0,0,0.1,0,0.1,0c0,0,0,0.1,0,0.1c0,0,0,0.1,0,0.1L74.5,43L75.8,44.9
		C75.8,44.8,75.8,44.9,75.8,44.9"/>
	<path class="st0" d="M77.2,45c0,0,0-0.1,0-0.1v-3.6c0,0,0-0.1,0-0.1c0,0,0.1,0,0.1,0h1c0.2,0,0.5,0.1,0.6,0.2
		c0.2,0.1,0.3,0.3,0.4,0.4c0.1,0.2,0.2,0.4,0.2,0.6c0,0.2-0.1,0.5-0.2,0.6c-0.1,0.2-0.3,0.3-0.4,0.4c-0.2,0.1-0.4,0.2-0.6,0.2h-0.8
		v1.2c0,0,0,0.1,0,0.1c0,0-0.1,0-0.1,0C77.2,45,77.2,45,77.2,45 M78.3,43.4c0.2,0,0.3,0,0.5-0.1c0.1-0.1,0.3-0.2,0.3-0.3
		c0.1-0.1,0.1-0.3,0.1-0.5c0-0.2,0-0.3-0.1-0.5c-0.1-0.1-0.2-0.3-0.3-0.3c-0.1-0.1-0.3-0.1-0.5-0.1h-0.8v1.9H78.3z"/>
	<path class="st0" d="M80.8,45c0,0,0-0.1,0-0.1v-3.6c0,0,0-0.1,0-0.1c0,0,0.1,0,0.1,0h2.4c0,0,0.1,0,0.1,0c0,0,0,0.1,0,0.1
		c0,0,0,0.1,0,0.1c0,0-0.1,0-0.1,0H81V43h1.6c0,0,0.1,0,0.1,0c0,0,0,0.1,0,0.1s0,0.1,0,0.1c0,0-0.1,0-0.1,0H81v1.5h2.2
		c0,0,0.1,0,0.1,0c0,0,0,0.1,0,0.1c0,0,0,0.1,0,0.1c0,0-0.1,0-0.1,0h-2.4C80.8,45,80.8,45,80.8,45"/>
	<path class="st0" d="M87.1,44.9C87.1,45,87.1,45,87.1,44.9C87.1,45,87,45,87,45c0,0-0.1,0-0.1,0c0,0,0,0-0.1-0.1l-0.9-1.5h-0.1H85
		v1.4c0,0,0,0.1,0,0.1c0,0-0.1,0-0.1,0c0,0-0.1,0-0.1,0c0,0,0-0.1,0-0.1v-3.6c0,0,0-0.1,0-0.1c0,0,0.1,0,0.1,0h0.9
		c0.2,0,0.5,0,0.6,0.1c0.2,0.1,0.3,0.2,0.4,0.4c0.1,0.2,0.2,0.4,0.2,0.6c0,0.3-0.1,0.5-0.2,0.7c-0.2,0.2-0.4,0.3-0.6,0.4l0.9,1.4
		C87.1,44.9,87.1,44.9,87.1,44.9 M85.8,43.2c0.2,0,0.3,0,0.5-0.1c0.1-0.1,0.3-0.2,0.3-0.3c0.1-0.1,0.1-0.3,0.1-0.4
		c0-0.2,0-0.3-0.1-0.5s-0.2-0.2-0.3-0.3c-0.1-0.1-0.3-0.1-0.5-0.1H85v1.7H85.8z"/>
	<path class="st0" d="M88.4,45c0,0,0-0.1,0-0.1v-3.6c0,0,0-0.1,0-0.1c0,0,0.1,0,0.1,0s0.1,0,0.1,0c0,0,0,0.1,0,0.1v3.6
		c0,0,0,0.1,0,0.1c0,0-0.1,0-0.1,0S88.4,45,88.4,45"/>
	<path class="st0" d="M90.3,45c0,0,0-0.1,0-0.1v-3.6c0,0,0-0.1,0-0.1c0,0,0.1,0,0.1,0h2.4c0,0,0.1,0,0.1,0c0,0,0,0.1,0,0.1
		c0,0,0,0.1,0,0.1c0,0-0.1,0-0.1,0h-2.2V43h1.6c0,0,0.1,0,0.1,0c0,0,0,0.1,0,0.1s0,0.1,0,0.1c0,0-0.1,0-0.1,0h-1.6v1.5h2.2
		c0,0,0.1,0,0.1,0c0,0,0,0.1,0,0.1c0,0,0,0.1,0,0.1c0,0-0.1,0-0.1,0h-2.4C90.3,45,90.3,45,90.3,45"/>
	<path class="st0" d="M94.3,45c0,0,0-0.1,0-0.1v-3.6c0,0,0-0.1,0-0.1c0,0,0.1,0,0.1,0c0,0,0.1,0,0.1,0l2.5,3.3v-3.2c0,0,0-0.1,0-0.1
		c0,0,0.1,0,0.1,0c0,0,0.1,0,0.1,0c0,0,0,0.1,0,0.1v3.6c0,0,0,0.1,0,0.1c0,0-0.1,0-0.1,0c0,0-0.1,0-0.1,0l-2.5-3.3v3.2
		c0,0,0,0.1,0,0.1c0,0-0.1,0-0.1,0S94.3,45,94.3,45"/>
	<path class="st0" d="M99.7,44.8c-0.3-0.2-0.5-0.4-0.7-0.7c-0.2-0.3-0.3-0.6-0.3-1c0-0.4,0.1-0.7,0.3-1c0.2-0.3,0.4-0.5,0.7-0.7
		c0.3-0.2,0.6-0.3,1-0.3c0.5,0,0.9,0.1,1.2,0.4c0,0,0,0.1,0,0.1c0,0,0,0.1,0,0.1c0,0-0.1,0-0.1,0c0,0-0.1,0-0.1-0.1
		c-0.3-0.2-0.6-0.3-1-0.3c-0.3,0-0.6,0.1-0.8,0.2c-0.3,0.2-0.5,0.4-0.6,0.6c-0.1,0.3-0.2,0.5-0.2,0.8c0,0.3,0.1,0.6,0.2,0.8
		c0.1,0.3,0.3,0.5,0.6,0.6c0.3,0.2,0.5,0.2,0.8,0.2c0.4,0,0.7-0.1,1-0.4c0,0,0,0,0.1,0c0,0,0.1,0,0.1,0c0,0,0,0.1,0,0.1
		c0,0,0,0.1,0,0.1c-0.3,0.3-0.7,0.4-1.2,0.4C100.3,45.1,100,45,99.7,44.8"/>
	<path class="st0" d="M103.4,45c0,0,0-0.1,0-0.1v-3.6c0,0,0-0.1,0-0.1c0,0,0.1,0,0.1,0h2.4c0,0,0.1,0,0.1,0c0,0,0,0.1,0,0.1
		c0,0,0,0.1,0,0.1c0,0-0.1,0-0.1,0h-2.2V43h1.6c0,0,0.1,0,0.1,0c0,0,0,0.1,0,0.1s0,0.1,0,0.1c0,0-0.1,0-0.1,0h-1.6v1.5h2.2
		c0,0,0.1,0,0.1,0c0,0,0,0.1,0,0.1c0,0,0,0.1,0,0.1c0,0-0.1,0-0.1,0h-2.4C103.4,45,103.4,45,103.4,45"/>
	<path class="st0" d="M109.4,45c0,0,0-0.1,0-0.1v-3.6c0,0,0-0.1,0-0.1c0,0,0.1,0,0.1,0c0,0,0.1,0,0.1,0l2.5,3.3v-3.2
		c0,0,0-0.1,0-0.1c0,0,0.1,0,0.1,0c0,0,0.1,0,0.1,0c0,0,0,0.1,0,0.1v3.6c0,0,0,0.1,0,0.1c0,0-0.1,0-0.1,0c0,0-0.1,0-0.1,0l-2.5-3.3
		v3.2c0,0,0,0.1,0,0.1c0,0-0.1,0-0.1,0S109.4,45,109.4,45"/>
	<path class="st0" d="M117,44.9c0,0,0,0.1,0,0.1c0,0-0.1,0-0.1,0c-0.1,0-0.1,0-0.1-0.1l-0.4-0.9h-2l-0.4,0.9c0,0.1-0.1,0.1-0.1,0.1
		c0,0-0.1,0-0.1,0c0,0,0-0.1,0-0.1c0,0,0,0,0-0.1l1.5-3.6c0-0.1,0.1-0.1,0.1-0.1c0.1,0,0.1,0,0.1,0.1L117,44.9
		C117,44.9,117,44.9,117,44.9 M114.4,43.8h1.8l-0.9-2.1L114.4,43.8z"/>
	<path class="st0" d="M120.8,41.2c0,0,0,0.1,0,0.1c0,0,0,0.1,0,0.1l-1.5,3.5c0,0.1-0.1,0.1-0.1,0.1c0,0-0.1,0-0.1,0c0,0,0,0-0.1-0.1
		l-1.5-3.5c0,0,0-0.1,0-0.1c0,0,0-0.1,0-0.1c0,0,0.1,0,0.1,0c0,0,0.1,0,0.1,0c0,0,0,0,0.1,0.1l1.4,3.2l1.3-3.2c0,0,0-0.1,0.1-0.1
		C120.6,41.2,120.7,41.2,120.8,41.2C120.7,41.2,120.8,41.2,120.8,41.2"/>
	<path class="st0" d="M122.1,45c0,0,0-0.1,0-0.1v-3.6c0,0,0-0.1,0-0.1c0,0,0.1,0,0.1,0s0.1,0,0.1,0c0,0,0,0.1,0,0.1v3.6
		c0,0,0,0.1,0,0.1c0,0-0.1,0-0.1,0S122.1,45,122.1,45"/>
	<path class="st0" d="M126.9,43.2c0,0,0,0.1,0,0.1v1.3c0,0,0,0,0,0.1c0,0,0,0,0,0c-0.3,0.3-0.7,0.4-1.2,0.4c-0.3,0-0.7-0.1-1-0.3
		c-0.3-0.2-0.5-0.4-0.7-0.7c-0.2-0.3-0.3-0.6-0.3-1c0-0.4,0.1-0.7,0.3-1c0.2-0.3,0.4-0.5,0.7-0.7c0.3-0.2,0.6-0.3,1-0.3
		c0.5,0,0.9,0.1,1.2,0.4c0,0,0,0.1,0,0.1c0,0,0,0.1,0,0.1c0,0-0.1,0-0.1,0c0,0-0.1,0-0.1-0.1c-0.3-0.2-0.6-0.3-1-0.3
		c-0.3,0-0.6,0.1-0.8,0.2c-0.3,0.2-0.5,0.4-0.6,0.6c-0.1,0.3-0.2,0.5-0.2,0.8c0,0.3,0.1,0.6,0.2,0.8c0.1,0.3,0.3,0.5,0.6,0.6
		c0.3,0.2,0.5,0.2,0.8,0.2c0.4,0,0.7-0.1,1-0.3v-1.1h-0.8c0,0-0.1,0-0.1,0c0,0,0-0.1,0-0.1c0,0,0-0.1,0-0.1c0,0,0.1,0,0.1,0h1
		C126.8,43.2,126.8,43.2,126.9,43.2"/>
	<path class="st0" d="M131.2,44.9c0,0,0,0.1,0,0.1s-0.1,0-0.1,0c-0.1,0-0.1,0-0.1-0.1l-0.4-0.9h-2l-0.4,0.9c0,0.1-0.1,0.1-0.1,0.1
		c0,0-0.1,0-0.1,0c0,0,0-0.1,0-0.1c0,0,0,0,0-0.1l1.5-3.6c0-0.1,0.1-0.1,0.1-0.1c0.1,0,0.1,0,0.1,0.1L131.2,44.9
		C131.2,44.9,131.2,44.9,131.2,44.9 M128.7,43.8h1.8l-0.9-2.1L128.7,43.8z"/>
	<path class="st0" d="M134.8,41.2C134.8,41.2,134.9,41.3,134.8,41.2c0,0.1,0,0.2,0,0.2c0,0-0.1,0-0.1,0h-1.3v3.5c0,0,0,0.1,0,0.1
		c0,0-0.1,0-0.1,0c0,0-0.1,0-0.1,0c0,0,0-0.1,0-0.1v-3.5h-1.3c0,0-0.1,0-0.1,0c0,0,0-0.1,0-0.1s0-0.1,0-0.1c0,0,0.1,0,0.1,0
		L134.8,41.2C134.8,41.2,134.8,41.2,134.8,41.2"/>
	<path class="st0" d="M136.1,45c0,0,0-0.1,0-0.1v-3.6c0,0,0-0.1,0-0.1c0,0,0.1,0,0.1,0c0,0,0.1,0,0.1,0c0,0,0,0.1,0,0.1v3.6
		c0,0,0,0.1,0,0.1c0,0-0.1,0-0.1,0C136.1,45,136.1,45,136.1,45"/>
	<path class="st0" d="M138.7,44.8c-0.3-0.2-0.5-0.4-0.7-0.7c-0.2-0.3-0.3-0.6-0.3-1c0-0.4,0.1-0.7,0.3-1c0.2-0.3,0.4-0.5,0.7-0.7
		c0.3-0.2,0.6-0.3,1-0.3c0.4,0,0.7,0.1,1,0.3c0.3,0.2,0.5,0.4,0.7,0.7c0.2,0.3,0.3,0.6,0.3,1c0,0.4-0.1,0.7-0.3,1
		c-0.2,0.3-0.4,0.5-0.7,0.7c-0.3,0.2-0.6,0.3-1,0.3C139.3,45.1,139,45,138.7,44.8 M140.6,44.6c0.3-0.1,0.5-0.3,0.6-0.6
		c0.1-0.3,0.2-0.5,0.2-0.9c0-0.3-0.1-0.6-0.2-0.9c-0.1-0.3-0.3-0.5-0.6-0.6c-0.3-0.1-0.5-0.2-0.9-0.2c-0.3,0-0.6,0.1-0.9,0.2
		c-0.3,0.1-0.5,0.3-0.6,0.6c-0.1,0.3-0.2,0.5-0.2,0.9c0,0.3,0.1,0.6,0.2,0.9c0.1,0.3,0.4,0.5,0.6,0.6c0.3,0.1,0.5,0.2,0.9,0.2
		C140,44.8,140.3,44.7,140.6,44.6"/>
	<path class="st0" d="M143.1,45c0,0,0-0.1,0-0.1v-3.6c0,0,0-0.1,0-0.1c0,0,0.1,0,0.1,0c0,0,0.1,0,0.1,0l2.5,3.3v-3.2
		c0,0,0-0.1,0-0.1c0,0,0.1,0,0.1,0c0,0,0.1,0,0.1,0c0,0,0,0.1,0,0.1v3.6c0,0,0,0.1,0,0.1c0,0-0.1,0-0.1,0c0,0-0.1,0-0.1,0l-2.5-3.3
		v3.2c0,0,0,0.1,0,0.1c0,0-0.1,0-0.1,0S143.1,45,143.1,45"/>
</g>
</svg>
